<svg width="37" height="37" viewBox="0 0 37 37" fill="none" xmlns="http://www.w3.org/2000/svg">
<path d="M24.4939 22.7306L28.6757 19.5958C33.6326 15.8761 35.8268 8.37538 34.7184 2.28158C28.6226 1.17324 21.1219 3.36742 17.4042 8.32426L14.2694 12.5061M24.4939 22.7306L17.3368 27.8428L9.15715 19.6632L14.2694 12.5061M24.4939 22.7306V28.1843C24.4939 29.9542 23.9199 31.6762 22.858 33.0921L21.4266 35L19.3817 32.9551M14.2694 12.5061H8.81566C7.04583 12.5061 5.32375 13.0801 3.90789 14.142L2 15.5734L4.0449 17.6183M11.2021 30.9102L4.0449 32.9551L6.42926 25.7979M25.5164 13.5285C26.0587 13.5285 26.5788 13.3131 26.9623 12.9296C27.3458 12.5461 27.5613 12.026 27.5613 11.4836C27.5613 10.9413 27.3458 10.4212 26.9623 10.0377C26.5788 9.65418 26.0587 9.43873 25.5164 9.43873C24.974 9.43873 24.4539 9.65418 24.0704 10.0377C23.6869 10.4212 23.4715 10.9413 23.4715 11.4836C23.4715 12.026 23.6869 12.5461 24.0704 12.9296C24.4539 13.3131 24.974 13.5285 25.5164 13.5285Z" stroke="#1D1918" stroke-width="3" stroke-linecap="round" stroke-linejoin="round"/>
</svg>
