<svg width="30" height="31" viewBox="0 0 30 31" fill="none" xmlns="http://www.w3.org/2000/svg">
<circle cx="15" cy="15.9797" r="15" fill="#1D1918"/>
<path d="M20.7102 15.2697C20.6172 15.176 20.5066 15.1016 20.3848 15.0508C20.2629 15.0001 20.1322 14.9739 20.0002 14.9739C19.8682 14.9739 19.7375 15.0001 19.6156 15.0508C19.4938 15.1016 19.3832 15.176 19.2902 15.2697L16.0002 18.5697V10.9797C16.0002 10.7145 15.8948 10.4602 15.7073 10.2726C15.5198 10.0851 15.2654 9.97974 15.0002 9.97974C14.735 9.97974 14.4806 10.0851 14.2931 10.2726C14.1055 10.4602 14.0002 10.7145 14.0002 10.9797V18.5697L10.7102 15.2697C10.5219 15.0814 10.2665 14.9756 10.0002 14.9756C9.73388 14.9756 9.47849 15.0814 9.29019 15.2697C9.10188 15.458 8.99609 15.7134 8.99609 15.9797C8.99609 16.246 9.10188 16.5014 9.29019 16.6897L14.2902 21.6897C14.3853 21.7808 14.4974 21.8521 14.6202 21.8997C14.7399 21.9526 14.8693 21.98 15.0002 21.98C15.1311 21.98 15.2605 21.9526 15.3802 21.8997C15.5029 21.8521 15.6151 21.7808 15.7102 21.6897L20.7102 16.6897C20.8039 16.5968 20.8783 16.4862 20.9291 16.3643C20.9798 16.2425 21.006 16.1117 21.006 15.9797C21.006 15.8477 20.9798 15.717 20.9291 15.5952C20.8783 15.4733 20.8039 15.3627 20.7102 15.2697Z" fill="#F1F1F1"/>
</svg>
