<svg width="41" height="41" viewBox="0 0 41 41" fill="none" xmlns="http://www.w3.org/2000/svg">
<rect x="0.078125" y="0.266602" width="40" height="40" rx="20" fill="#FCEADC"/>
<path d="M15.8781 10.2666H24.2781C27.4781 10.2666 30.0781 12.8666 30.0781 16.0666V24.4666C30.0781 26.0049 29.4671 27.4801 28.3793 28.5678C27.2916 29.6555 25.8164 30.2666 24.2781 30.2666H15.8781C12.6781 30.2666 10.0781 27.6666 10.0781 24.4666V16.0666C10.0781 14.5283 10.6892 13.0531 11.7769 11.9654C12.8646 10.8777 14.3399 10.2666 15.8781 10.2666ZM15.6781 12.2666C14.7233 12.2666 13.8077 12.6459 13.1325 13.321C12.4574 13.9961 12.0781 14.9118 12.0781 15.8666V24.6666C12.0781 26.6566 13.6881 28.2666 15.6781 28.2666H24.4781C25.4329 28.2666 26.3486 27.8873 27.0237 27.2122C27.6988 26.5371 28.0781 25.6214 28.0781 24.6666V15.8666C28.0781 13.8766 26.4681 12.2666 24.4781 12.2666H15.6781ZM25.3281 13.7666C25.6596 13.7666 25.9776 13.8983 26.212 14.1327C26.4464 14.3671 26.5781 14.6851 26.5781 15.0166C26.5781 15.3481 26.4464 15.6661 26.212 15.9005C25.9776 16.1349 25.6596 16.2666 25.3281 16.2666C24.9966 16.2666 24.6787 16.1349 24.4442 15.9005C24.2098 15.6661 24.0781 15.3481 24.0781 15.0166C24.0781 14.6851 24.2098 14.3671 24.4442 14.1327C24.6787 13.8983 24.9966 13.7666 25.3281 13.7666ZM20.0781 15.2666C21.4042 15.2666 22.676 15.7934 23.6137 16.7311C24.5513 17.6687 25.0781 18.9405 25.0781 20.2666C25.0781 21.5927 24.5513 22.8645 23.6137 23.8021C22.676 24.7398 21.4042 25.2666 20.0781 25.2666C18.752 25.2666 17.4803 24.7398 16.5426 23.8021C15.6049 22.8645 15.0781 21.5927 15.0781 20.2666C15.0781 18.9405 15.6049 17.6687 16.5426 16.7311C17.4803 15.7934 18.752 15.2666 20.0781 15.2666ZM20.0781 17.2666C19.2825 17.2666 18.5194 17.5827 17.9568 18.1453C17.3942 18.7079 17.0781 19.471 17.0781 20.2666C17.0781 21.0623 17.3942 21.8253 17.9568 22.3879C18.5194 22.9505 19.2825 23.2666 20.0781 23.2666C20.8738 23.2666 21.6368 22.9505 22.1994 22.3879C22.7621 21.8253 23.0781 21.0623 23.0781 20.2666C23.0781 19.471 22.7621 18.7079 22.1994 18.1453C21.6368 17.5827 20.8738 17.2666 20.0781 17.2666Z" fill="#312B61"/>
</svg>
