<svg width="70" height="73" viewBox="0 0 70 73" fill="none" xmlns="http://www.w3.org/2000/svg">
<path fill-rule="evenodd" clip-rule="evenodd" d="M57.2647 42.1912V42.1912L57.2071 42.4153L57.1539 42.6408L57.105 42.8678L57.0604 43.0965L57.0201 43.3272L56.9839 43.5599L56.9519 43.7948L56.9238 44.0322L56.8997 44.2721L56.8795 44.5148L56.863 44.7604L56.8502 45.0091L56.841 45.261L56.8352 45.5162L56.8327 45.775L56.8334 46.0374L56.8373 46.3037L56.8441 46.5739L56.8538 46.8481L56.8661 47.1266L56.881 47.4094L56.8982 47.6967L56.9176 47.9885L56.9391 48.2849L56.9625 48.5861L56.9875 48.8921L57.0139 49.2031L57.0416 49.519L57.0704 49.8399L57.1 50.1659L57.1302 50.4971L57.1608 50.8333L57.1915 51.1747L57.222 51.5213L57.2521 51.8729L57.2815 52.2296L57.3099 52.5914L57.3371 52.9581L57.3627 53.3298L57.3864 53.7061L57.4079 54.0872L57.427 54.4727L57.4431 54.8625L57.4561 55.2565L57.4656 55.6545L57.4711 56.0561L57.4725 56.4612L57.4692 56.8694L57.461 57.2806L57.4475 57.6942L57.4283 58.11L57.4031 58.5276L57.3716 58.9467L57.3332 59.3666L57.2878 59.7871L57.2349 60.2076L57.1742 60.6277L57.1055 61.0468L57.0282 61.4643L56.9423 61.8797L56.8473 62.2925L56.7431 62.702L56.6292 63.1075L56.5056 63.5086L56.3719 63.9045L56.2281 64.2945L56.0738 64.6781L55.909 65.0545L55.7335 65.423L55.5473 65.7831L55.3502 66.1341L55.1424 66.4752L54.9236 66.8059L54.6941 67.1255L54.4538 67.4333L54.2028 67.7289L53.9413 68.0116L53.6695 68.2808L53.3874 68.5361L53.0955 68.7769L52.7939 69.0027L52.4828 69.2133L52.1628 69.4081L51.834 69.5868L51.4969 69.7491L51.1518 69.8948L50.7993 70.0237L50.4397 70.1356L50.0736 70.2303L49.7014 70.3079L49.3236 70.3683L48.9407 70.4116L48.5533 70.4377L48.162 70.447L47.7672 70.4395L47.3694 70.4154L46.9694 70.3752L46.5675 70.319L46.1643 70.2472L45.7604 70.1603L45.3562 70.0587L44.9523 69.9428L44.5492 69.8132L44.1473 69.6704L43.7472 69.5149L43.3492 69.3474L42.9538 69.1685L42.5613 68.9787L42.1722 68.7788L41.7869 68.5693L41.4055 68.351L41.0285 68.1246L40.656 67.8906L40.2884 67.6498L39.9259 67.4028L39.5687 67.1504L39.2169 66.8931L38.8707 66.6317L38.5302 66.3668L38.1954 66.099L37.8666 65.8289L37.5436 65.5572L37.2265 65.2845L36.9154 65.0114L36.6102 64.7383L36.3108 64.4659L36.0172 64.1947L35.7293 63.9252L35.447 63.6579L35.1702 63.3932L34.8987 63.1316L34.6324 62.8736L34.3711 62.6195L34.1146 62.3699L33.8628 62.1249L33.6154 61.8851L33.3723 61.6508L33.1331 61.4222L32.8976 61.1998L32.6656 60.9838L32.4369 60.7746L32.2111 60.5723L31.9879 60.3774L31.7671 60.19L31.5484 60.0105L31.3313 59.839L31.1158 59.6759L30.9013 59.5213L30.6875 59.3756L30.4741 59.2389L30.2608 59.1115L30.0471 58.9936L29.8326 58.8856L29.617 58.7876L29.3997 58.6999L29.1805 58.6228L28.9588 58.5565L28.7341 58.5013L28.5062 58.4568L28.2748 58.4225L28.0397 58.3981L27.8006 58.383L27.5573 58.3768L27.3095 58.3791L27.0571 58.3895L26.7999 58.4077L26.5377 58.4332L26.2703 58.4656L25.9975 58.5046L25.7192 58.5497L25.4352 58.6007L25.1454 58.6571L24.8497 58.7186L24.5479 58.7847L24.24 58.8551L23.9259 58.9294L23.6055 59.0072L23.2787 59.0881L22.9456 59.1718L22.6061 59.2576L22.2601 59.3454L21.9078 59.4346L21.5492 59.5248L21.1843 59.6155L20.8132 59.7063L20.436 59.7968L20.0529 59.8864L19.6639 59.9747L19.2693 60.0613L18.8693 60.1455L18.4641 60.227L18.0539 60.3053L17.6391 60.3797L17.2199 60.4498L16.7967 60.5152L16.3699 60.5753L15.9399 60.6295L15.507 60.6775L15.0717 60.7186L14.6345 60.7525L14.196 60.7785L13.7565 60.7963L13.3168 60.8053L12.8773 60.8052L12.4386 60.7954L12.0014 60.7757L11.5662 60.7455L11.1338 60.7045L10.7048 60.6524L10.2798 60.5888L9.85958 60.5134L9.44474 60.4261L9.036 60.3264L8.63403 60.2144L8.23951 60.0897L7.85311 59.9523L7.4755 59.802L7.10733 59.6389L6.74922 59.4629L6.40178 59.2741L6.06562 59.0724L5.7413 58.8581L5.42934 58.6312L5.13026 58.3919L4.84454 58.1405L4.5726 57.8773L4.31484 57.6024L4.07163 57.3163L3.84329 57.0193L3.63008 56.7118L3.43223 56.3942L3.24995 56.0669L3.08335 55.7305L2.93255 55.3854L2.79758 55.0322L2.67845 54.6713L2.57512 54.3033L2.48751 53.9287L2.41548 53.5482L2.35887 53.1622L2.31747 52.7714L2.29102 52.3763L2.27925 51.9774L2.28182 51.5754L2.2984 51.1708L2.3286 50.7642L2.37201 50.356L2.42819 49.9468L2.49669 49.5371L2.57703 49.1274L2.66872 48.7182L2.77124 48.3098L2.88408 47.9028L3.00671 47.4976L3.13858 47.0944L3.27915 46.6938L3.42788 46.296L3.58421 45.9014L3.7476 45.5102L3.9175 45.1227L4.09339 44.7392L4.27471 44.3598L4.46096 43.9848L4.65161 43.6144L4.84616 43.2486L5.04412 42.8877L5.24502 42.5318L5.44837 42.1808L5.65374 41.8349L5.86068 41.4942L6.06877 41.1587L6.27762 40.8283L6.48682 40.5031L6.69601 40.1831L6.90484 39.8682L7.11296 39.5584L7.32004 39.2536L7.5258 38.9537L7.72992 38.6587L7.93214 38.3685L8.13221 38.0829L8.32987 37.8018L8.5249 37.5252L8.71709 37.2529L8.90624 36.9847L9.09216 36.7205L9.27468 36.4602L9.45365 36.2036L9.62891 35.9505L9.80033 35.7008L9.9678 35.4543L10.1312 35.2109L10.2904 34.9703L10.4454 34.7324L10.596 34.497L10.7422 34.2639L10.8839 34.033L11.0211 33.8041L11.1537 33.5769L11.2817 33.3513L11.4051 33.1272L11.5237 32.9042L11.6377 32.6823L11.747 32.4613L11.8515 32.2409L11.9514 32.021L12.0466 31.8014L12.137 31.5819L12.2228 31.3623L12.3039 31.1425L12.3804 30.9222L12.4524 30.7013L12.5197 30.4795L12.5825 30.2568L12.6409 30.0329L12.6948 29.8077L12.7444 29.581L12.7896 29.3525L12.8306 29.1222L12.8674 28.8898L12.9002 28.6552L12.9288 28.4183L12.9535 28.1787L12.9744 27.9365L12.9915 27.6914L13.0049 27.4432L13.0147 27.1919L13.021 26.9372L13.024 26.6789L13.0237 26.4171L13.0204 26.1515L13.014 25.8819L13.0048 25.6083L12.9929 25.3305L12.9784 25.0484L12.9616 24.7619L12.9425 24.4708L12.9213 24.1751L12.8982 23.8747L12.8735 23.5694L12.8473 23.2593L12.8197 22.9442L12.7911 22.624L12.7616 22.2988L12.7315 21.9685L12.701 21.6331L12.6703 21.2925L12.6397 20.9468L12.6096 20.5959L12.58 20.24L12.5514 19.879L12.524 19.5131L12.4981 19.1422L12.4741 18.7666L12.4522 18.3863L12.4328 18.0015L12.4161 17.6123L12.4026 17.219L12.3926 16.8216L12.3864 16.4206L12.3843 16.016L12.3868 15.6083L12.3942 15.1976L12.4068 14.7843L12.4251 14.3688L12.4493 13.9514L12.4798 13.5326L12.5171 13.1128L12.5614 12.6923L12.613 12.2718L12.6724 11.8516L12.7399 11.4324L12.8157 11.0145L12.9003 10.5987L12.9938 10.1855L13.0966 9.77548L13.2089 9.36924L13.3309 8.96743L13.463 8.57069L13.6052 8.17968L13.7578 7.79505L13.9209 7.41746L14.0947 7.04759L14.2792 6.6861L14.4745 6.33366L14.6807 5.99092L14.8977 5.65854L15.1255 5.33714L15.3641 5.02736L15.6134 4.7298L15.8732 4.44504L16.1434 4.17363L16.4238 3.91611L16.7142 3.67298L17.0143 3.4447L17.3239 3.2317L17.6425 3.03438L17.97 2.85308L18.3058 2.6881L18.6496 2.53973L19.0009 2.40816L19.3594 2.29357L19.7245 2.19608L20.0958 2.11576L20.4728 2.05263L20.8548 2.00666L21.2415 1.97778L21.6323 1.96585L22.0266 1.97071L22.4239 1.99212L22.8236 2.02982L23.2253 2.0835L23.6283 2.1528L24.0322 2.23733L24.4363 2.33665L24.8403 2.45029L25.2435 2.57775L25.6456 2.71851L26.0461 2.87199L26.4444 3.03761L26.8403 3.21477L27.2332 3.40285L27.6229 3.6012L28.0089 3.80918L28.3909 4.02611L28.7687 4.25133L29.1418 4.48416L29.5102 4.72393L29.8735 4.96996L30.2316 5.22157L30.5843 5.47811L30.9314 5.73892L31.2729 6.00333L31.6085 6.27071L31.9383 6.54043L32.2622 6.81189L32.5802 7.08447L32.8923 7.3576L33.1985 7.6307L33.4988 7.90324L33.7933 8.17467L34.0821 8.4445L34.3653 8.71221L34.643 8.97734L34.9153 9.23943L35.1824 9.49804L35.4445 9.75275L35.7017 10.0032L35.9542 10.2489L36.2023 10.4895L36.4461 10.7248L36.686 10.9543L36.922 11.1777L37.1545 11.3947L37.3838 11.6051L37.61 11.8084L37.8336 12.0045L38.0548 12.1931L38.2738 12.3739L38.4911 12.5467L38.7068 12.7112L38.9215 12.8671L39.1353 13.0143L39.3487 13.1524L39.5621 13.2813L39.7757 13.4007L39.99 13.5104L40.2055 13.61L40.4224 13.6993L40.6413 13.7782L40.8626 13.8462L41.0868 13.9031L41.3141 13.9493L41.5449 13.9852L41.7795 14.0112L42.0179 14.0277L42.2606 14.0353L42.5076 14.0343L42.7592 14.0251L43.0156 14.0082L43.277 13.9838L43.5436 13.9525L43.8156 13.9145L44.093 13.8703L44.3761 13.8203L44.6649 13.7647L44.9597 13.704L45.2605 13.6386L45.5674 13.5688L45.8805 13.4951L46.1999 13.4179L46.5257 13.3374L46.8578 13.2542L47.1963 13.1687L47.5412 13.0812L47.8925 12.9922L48.2501 12.9021L48.614 12.8115L48.9842 12.7206L49.3604 12.6301L49.7426 12.5403L50.1306 12.4517L50.5244 12.3648L50.9235 12.2802L51.3279 12.1982L51.7373 12.1194L52.1514 12.0444L52.5699 11.9735L52.9925 11.9073L53.4187 11.8464L53.8483 11.7912L54.2808 11.7422L54.7157 11.6999L55.1526 11.6649L55.591 11.6376L56.0303 11.6185L56.4701 11.608L56.9097 11.6066L57.3485 11.6148L57.786 11.633L58.2215 11.6615L58.6544 11.7007L59.084 11.751L59.5097 11.8128L59.9307 11.8863L60.3464 11.9717L60.7562 12.0693L61.1593 12.1794L61.555 12.3021L61.9428 12.4374L62.3218 12.5856L62.6916 12.7467L63.0513 12.9207L63.4005 13.1075L63.7385 13.3071L64.0647 13.5194L64.3787 13.7443L64.6798 13.9816L64.9677 14.2311L65.2419 14.4925L65.5019 14.7655L65.7475 15.0499L65.9782 15.3452L66.1939 15.651L66.3942 15.9671L66.5789 16.2928L66.748 16.6278L66.9014 16.9715L67.0389 17.3235L67.1605 17.6833L67.2663 18.0502L67.3564 18.4237L67.4309 18.8033L67.49 19.1885L67.5338 19.5786L67.5626 19.973L67.5767 20.3713L67.5764 20.7728L67.562 21.1771L67.534 21.5834L67.4926 21.9914L67.4385 22.4005L67.3719 22.8101L67.2934 23.2198L67.2035 23.6292L67.1027 24.0377L66.9914 24.4449L66.8703 24.8505L66.7399 25.254L66.6007 25.655L66.4532 26.0533L66.298 26.4485L66.1357 26.8402L65.9668 27.2283L65.7919 27.6125L65.6114 27.9925L65.4259 28.3682L65.2359 28.7394L65.0419 29.1059L64.8445 29.4676L64.644 29.8244L64.441 30.1761L64.236 30.5228L64.0292 30.8643L63.8213 31.2007L63.6125 31.5319L63.4034 31.8579L63.1942 32.1788L62.9852 32.4945L62.777 32.8051L62.5697 33.1107L62.3637 33.4113L62.1593 33.7071L61.9568 33.9981L61.7564 34.2844L61.5583 34.5662L61.3628 34.8435L61.1702 35.1165L60.9805 35.3853L60.7941 35.6502L60.611 35.9111L60.4315 36.1683L60.2556 36.4219L60.0836 36.6721L59.9155 36.9191L59.7514 37.163L59.5915 37.4041L59.4359 37.6424L59.2846 37.8782L59.1377 38.1116L58.9952 38.3428L58.8573 38.5721L58.724 38.7995L58.5952 39.0253L58.4711 39.2497L58.3517 39.4728L58.237 39.6949L58.127 39.916L58.0217 40.1365L57.9211 40.3565L57.8252 40.5761L57.7339 40.7956L57.6474 41.0152L57.5655 41.235L57.4883 41.4552L57.4157 41.676L57.3476 41.8976L57.284 42.1201L57.2647 42.1912Z" fill="url(#paint0_linear_4875_147)"/>
<defs>
<linearGradient id="paint0_linear_4875_147" x1="20.3771" y1="-46.3737" x2="-31.7013" y2="-30.0566" gradientUnits="userSpaceOnUse">
<stop stop-color="#E81A00"/>
<stop offset="0.740093" stop-color="#F98228"/>
</linearGradient>
</defs>
</svg>
