<svg width="41" height="41" viewBox="0 0 41 41" fill="none" xmlns="http://www.w3.org/2000/svg">
<rect x="0.157227" y="0.266602" width="40" height="40" rx="20" fill="#FCEADC"/>
<path d="M15.0977 13.2666C15.0974 13.7971 14.8864 14.3057 14.5112 14.6805C14.1359 15.0554 13.6271 15.2659 13.0967 15.2656C12.5662 15.2654 12.0576 15.0544 11.6827 14.6791C11.3079 14.3039 11.0974 13.7951 11.0977 13.2646C11.0979 12.7342 11.3089 12.2256 11.6841 11.8507C12.0594 11.4758 12.5682 11.2654 13.0987 11.2656C13.6291 11.2659 14.1377 11.4769 14.5126 11.8521C14.8875 12.2274 15.0979 12.7362 15.0977 13.2666ZM15.1577 16.7466H11.1577V29.2666H15.1577V16.7466ZM21.4777 16.7466H17.4977V29.2666H21.4377V22.6966C21.4377 19.0366 26.2077 18.6966 26.2077 22.6966V29.2666H30.1577V21.3366C30.1577 15.1666 23.0977 15.3966 21.4377 18.4266L21.4777 16.7466Z" fill="#312B61"/>
</svg>
