<svg width="14" height="13" viewBox="0 0 14 13" fill="none" xmlns="http://www.w3.org/2000/svg">
<path d="M7 1.25L5.89167 4.63333C5.83491 4.80904 5.73727 4.96877 5.60675 5.09939C5.47624 5.23001 5.31658 5.32778 5.14092 5.38467L1.75 6.5L5.13333 7.60833C5.30904 7.66509 5.46877 7.76273 5.59939 7.89325C5.73001 8.02376 5.82778 8.18342 5.88467 8.35908L7 11.75L8.10833 8.36667C8.16509 8.19096 8.26273 8.03123 8.39325 7.90061C8.52376 7.76999 8.68342 7.67222 8.85908 7.61533L12.25 6.5L8.86667 5.39167C8.69096 5.33491 8.53123 5.23727 8.40061 5.10675C8.26999 4.97624 8.17222 4.81658 8.11533 4.64092L7 1.25Z" fill="#FCEADC" stroke="#FCEADC" stroke-width="2" stroke-linecap="round" stroke-linejoin="round"/>
</svg>
