<svg width="30" height="30" viewBox="0 0 30 30" fill="none" xmlns="http://www.w3.org/2000/svg">
<circle cx="15" cy="15" r="15" transform="rotate(180 15 15)" fill="#1D1918"/>
<path d="M9.28981 15.71C9.38278 15.8037 9.49338 15.8781 9.61524 15.9289C9.7371 15.9797 9.8678 16.0058 9.99981 16.0058C10.1318 16.0058 10.2625 15.9797 10.3844 15.9289C10.5062 15.8781 10.6168 15.8037 10.7098 15.71L13.9998 12.41V20C13.9998 20.2652 14.1052 20.5196 14.2927 20.7071C14.4802 20.8946 14.7346 21 14.9998 21C15.265 21 15.5194 20.8946 15.7069 20.7071C15.8945 20.5196 15.9998 20.2652 15.9998 20V12.41L19.2898 15.71C19.4781 15.8983 19.7335 16.0041 19.9998 16.0041C20.2661 16.0041 20.5215 15.8983 20.7098 15.71C20.8981 15.5217 21.0039 15.2663 21.0039 15C21.0039 14.7337 20.8981 14.4783 20.7098 14.29L15.7098 9.29C15.6147 9.19896 15.5026 9.12759 15.3798 9.08C15.2601 9.02709 15.1307 8.99977 14.9998 8.99977C14.8689 8.99977 14.7395 9.02709 14.6198 9.08C14.4971 9.12759 14.3849 9.19896 14.2898 9.29L9.28981 14.29C9.19609 14.383 9.12169 14.4936 9.07092 14.6154C9.02015 14.7373 8.99401 14.868 8.99401 15C8.99401 15.132 9.02015 15.2627 9.07092 15.3846C9.12169 15.5064 9.19609 15.617 9.28981 15.71Z" fill="#F1F1F1"/>
</svg>
