<svg width="51" height="51" viewBox="0 0 40 41" fill="none" xmlns="http://www.w3.org/2000/svg">
<rect y="0.0864258" width="40" height="40" rx="20" fill="#F1F1F1"/>
<path d="M15.443 13.4365C16.082 13.4365 16.673 13.4865 17.213 13.6345C17.754 13.7335 18.197 13.9315 18.59 14.1785C18.984 14.4259 19.279 14.7722 19.475 15.2175C19.672 15.6625 19.771 16.2075 19.771 16.8005C19.771 17.4935 19.623 18.0865 19.279 18.5315C18.984 18.9775 18.492 19.3725 17.902 19.6695C18.738 19.9175 19.377 20.3625 19.771 20.9555C20.165 21.5485 20.41 22.2915 20.41 23.1325C20.41 23.8255 20.262 24.4185 20.016 24.9135C19.771 25.4085 19.377 25.8535 18.934 26.1505C18.4526 26.4685 17.9207 26.7025 17.361 26.8425C16.771 26.9915 16.181 27.0905 15.591 27.0905H9V13.4365H15.443ZM15.049 18.9765C15.59 18.9765 16.033 18.8285 16.377 18.5815C16.721 18.3345 16.869 17.8885 16.869 17.3445C16.869 17.0475 16.819 16.7505 16.721 16.5535C16.623 16.3565 16.475 16.2065 16.279 16.0585C16.0786 15.946 15.8631 15.8628 15.639 15.8115C15.393 15.7615 15.148 15.7615 14.852 15.7615H12V18.9775L15.049 18.9765ZM15.197 24.8145C15.492 24.8145 15.787 24.7645 16.033 24.7155C16.279 24.6655 16.525 24.5675 16.721 24.4185C16.9206 24.2729 17.0881 24.0877 17.213 23.8745C17.311 23.6275 17.41 23.3305 17.41 22.9845C17.41 22.2915 17.213 21.7965 16.82 21.4505C16.426 21.1535 15.885 21.0055 15.246 21.0055H12V24.8155L15.197 24.8145ZM24.689 24.7645C25.0823 25.1605 25.6723 25.3585 26.459 25.3585C27 25.3585 27.492 25.2105 27.885 24.9635C28.279 24.6662 28.525 24.3692 28.623 24.0725H31.033C30.639 25.2595 30.049 26.1005 29.263 26.6445C28.475 27.1395 27.541 27.4365 26.41 27.4365C25.6865 27.4376 24.9691 27.3033 24.295 27.0405C23.6881 26.8142 23.1472 26.4403 22.721 25.9525C22.2633 25.4979 21.9256 24.9368 21.738 24.3195C21.492 23.6765 21.393 22.9845 21.393 22.1925C21.393 21.4505 21.492 20.7585 21.738 20.1145C21.974 19.4941 22.3244 18.9236 22.771 18.4325C23.213 17.9875 23.754 17.5925 24.344 17.3445C25.0008 17.0808 25.7023 16.9464 26.41 16.9485C27.246 16.9485 27.984 17.0975 28.623 17.4435C29.263 17.7895 29.754 18.1855 30.147 18.7795C30.541 19.3235 30.837 19.9665 31.033 20.6595C31.131 21.3515 31.18 22.0445 31.131 22.8355H24C24 23.6275 24.295 24.3695 24.689 24.7655M27.787 19.5715C27.443 19.2255 26.902 19.0275 26.262 19.0275C25.8867 19.0219 25.5156 19.1066 25.18 19.2745C24.885 19.4235 24.689 19.6215 24.492 19.8195C24.3098 20.01 24.1899 20.2513 24.148 20.5115C24.098 20.7595 24.049 20.9565 24.049 21.1545H28.475C28.377 20.4125 28.131 19.9185 27.787 19.5715ZM23.459 14.3765H28.967V15.7125H23.46L23.459 14.3765Z" fill="#1D1918"/>
</svg>
