<svg width="61" height="68" viewBox="0 0 61 68" fill="none" xmlns="http://www.w3.org/2000/svg">
<path fill-rule="evenodd" clip-rule="evenodd" d="M45.7189 29.8798L45.7691 30.0413L45.8321 30.1997L45.9079 30.3556L45.9961 30.5095L46.0968 30.6617L46.2097 30.8128L46.3349 30.9632L46.4722 31.1133L46.6216 31.2634L46.783 31.4141L46.9563 31.5656L47.1415 31.7185L47.3384 31.8731L47.5469 32.0298L47.767 32.1889L47.9984 32.351L48.2411 32.5163L48.4946 32.6852L48.7589 32.8582L49.0334 33.0356L49.318 33.2177L49.612 33.4049L49.9149 33.5976L50.2261 33.796L50.545 34.0005L50.8705 34.2112L51.2018 34.4286L51.5379 34.6526L51.8775 34.8836L52.2193 35.1216L52.5618 35.3667L52.9036 35.6188L53.2427 35.8778L53.5775 36.1437L53.9059 36.4161L54.2259 36.6947L54.5352 36.9791L54.8317 37.2688L55.113 37.5632L55.3769 37.8616L55.6211 38.1631L55.8433 38.4669L56.0413 38.772L56.2131 39.0774L56.3569 39.3821L56.4709 39.6848L56.5537 39.9844L56.6042 40.2797L56.6215 40.5697L56.605 40.8532L56.5546 41.1291L56.4702 41.3964L56.3525 41.6543L56.2021 41.9019L56.0202 42.1386L55.8081 42.3638L55.5675 42.5771L55.3003 42.778L55.0085 42.9666L54.6942 43.1427L54.3598 43.3065L54.0075 43.458L53.6399 43.5977L53.2592 43.7259L52.8677 43.8431L52.4678 43.9498L52.0615 44.0466L51.6509 44.1342L51.2379 44.2132L50.8243 44.2844L50.4117 44.3484L50.0016 44.406L49.5953 44.4578L49.1941 44.5046L48.799 44.5471L48.4108 44.5858L48.0305 44.6216L47.6585 44.6549L47.2956 44.6863L46.9422 44.7165L46.5986 44.7459L46.265 44.7751L45.9418 44.8045L45.629 44.8346L45.3268 44.8658L45.035 44.8985L44.7538 44.9331L44.483 44.9699L44.2226 45.0094L43.9724 45.0517L43.7323 45.0973L43.5021 45.1464L43.2816 45.1993L43.0707 45.2563L42.869 45.3176L42.6765 45.3835L42.4928 45.4543L42.3178 45.5301L42.1513 45.6113L41.9929 45.6979L41.8425 45.7904L41.6998 45.8889L41.5646 45.9936L41.4366 46.1048L41.3157 46.2227L41.2016 46.3476L41.094 46.4795L40.9928 46.6189L40.8977 46.7659L40.8085 46.9208L40.725 47.0837L40.6469 47.255L40.5739 47.4348L40.5059 47.6234L40.4426 47.821L40.3837 48.0278L40.3291 48.2441L40.2783 48.47L40.2312 48.7058L40.1875 48.9515L40.1468 49.2074L40.1088 49.4736L40.0733 49.7502L40.0398 50.0374L40.008 50.335L39.9775 50.6432L39.9478 50.9618L39.9186 51.2908L39.8894 51.63L39.8596 51.9792L39.8288 52.338L39.7964 52.706L39.7618 53.0828L39.7244 53.4676L39.6836 53.8598L39.6388 54.2584L39.5893 54.6626L39.5343 55.0712L39.4732 55.4828L39.4053 55.8962L39.3298 56.3097L39.2461 56.7215L39.1534 57.13L39.0511 57.533L38.9386 57.9284L38.8153 58.3142L38.6808 58.6878L38.5345 59.0471L38.3761 59.3897L38.2054 59.7131L38.0223 60.0151L37.8268 60.2934L37.6189 60.5459L37.3989 60.7707L37.1672 60.9661L36.9243 61.1305L36.6709 61.2627L36.4076 61.3618L36.1353 61.4272L35.855 61.4586L35.5678 61.4561L35.2746 61.4201L34.9768 61.3513L34.6753 61.2509L34.3714 61.12L34.0662 60.9603L33.7608 60.7735L33.4563 60.5617L33.1536 60.3269L32.8538 60.0714L32.5575 59.7975L32.2657 59.5073L31.9789 59.2034L31.6976 58.8878L31.4225 58.5629L31.1537 58.2307L30.8916 57.8932L30.6365 57.5524L30.3883 57.21L30.1472 56.8676L29.9132 56.5269L29.6861 56.1891L29.4658 55.8556L29.2522 55.5274L29.045 55.2055L28.8439 54.8908L28.6488 54.5842L28.4592 54.2862L28.2749 53.9974L28.0955 53.7184L27.9206 53.4496L27.7499 53.1913L27.5831 52.9438L27.4197 52.7074L27.2593 52.4824L27.1016 52.2687L26.9461 52.0667L26.7925 51.8764L26.6404 51.6978L26.4894 51.5312L26.3391 51.3765L26.1891 51.2339L26.0389 51.1034L25.8881 50.985L25.7364 50.8789L25.5833 50.7852L25.4284 50.704L25.2711 50.6354L25.1111 50.5795L24.9477 50.5366L24.7807 50.5065L24.6097 50.4887L24.4344 50.483L24.2543 50.4891L24.0693 50.5064L23.8789 50.5349L23.6829 50.5741L23.4809 50.6239L23.2726 50.6839L23.0577 50.7539L22.8358 50.8336L22.6068 50.9228L22.3702 51.0211L22.1259 51.1283L21.8734 51.2441L21.6127 51.3681L21.3434 51.4999L21.0654 51.6391L20.7784 51.7853L20.4825 51.938L20.1774 52.0966L19.8631 52.2605L19.5396 52.429L19.2071 52.6014L18.8656 52.7769L18.5155 52.9545L18.157 53.1333L17.7905 53.3122L17.4165 53.4901L17.0358 53.6657L16.649 53.8376L16.257 54.0045L15.8609 54.1649L15.4617 54.3171L15.0608 54.4597L14.6595 54.5909L14.2594 54.709L13.862 54.8125L13.4691 54.8996L13.0825 54.9687L12.7041 55.0182L12.3358 55.0468L11.9795 55.0531L11.6371 55.0359L11.3105 54.9943L11.0014 54.9275L10.7114 54.835L10.4422 54.7164L10.1949 54.5718L9.97072 54.4013L9.77058 54.2055L9.59512 53.9851L9.44475 53.7411L9.31965 53.4746L9.2197 53.1872L9.14457 52.8802L9.0937 52.5555L9.0663 52.2149L9.06138 51.8602L9.07781 51.4934L9.11429 51.1165L9.16942 50.7313L9.24171 50.3397L9.32961 49.9436L9.43153 49.5446L9.54587 49.1444L9.67105 48.7444L9.80552 48.3461L9.94774 47.9507L10.0963 47.5593L10.2497 47.1729L10.4068 46.7923L10.5662 46.4184L10.7268 46.0516L10.8875 45.6925L11.0474 45.3416L11.2056 44.9991L11.3612 44.6652L11.5134 44.3402L11.6617 44.024L11.8054 43.7166L11.944 43.4182L12.0769 43.1284L12.2038 42.8473L12.3243 42.5747L12.438 42.3103L12.5447 42.0539L12.644 41.8053L12.7358 41.5642L12.8199 41.3304L12.896 41.1035L12.964 40.8833L13.0238 40.6694L13.0752 40.4616L13.1181 40.2595L13.1525 40.0628L13.1782 39.8712L13.1951 39.6843L13.2031 39.502L13.2022 39.3237L13.1923 39.1493L13.1732 38.9784L13.1449 38.8107L13.1074 38.6459L13.0605 38.4836L13.0041 38.3236L12.9383 38.1655L12.8627 38.0091L12.7775 37.8539L12.6825 37.6997L12.5776 37.5462L12.4628 37.3931L12.3379 37.24L12.2029 37.0866L12.0577 36.9326L11.9023 36.7776L11.7365 36.6214L11.5605 36.4636L11.3741 36.3038L11.1773 36.1417L10.9703 35.977L10.753 35.8093L10.5255 35.6383L10.288 35.4637L10.0406 35.285L9.78363 35.102L9.5173 34.9144L9.24198 34.7217L8.95809 34.5238L8.66613 34.3202L8.3667 34.1108L8.06048 33.8953L7.74826 33.6734L7.43093 33.4449L7.10952 33.2097L6.78517 32.9678L6.45913 32.7189L6.13282 32.4632L5.80775 32.2006L5.48558 31.9314L5.16809 31.6557L4.85719 31.3738L4.55489 31.0861L4.26327 30.7931L3.98452 30.4954L3.72085 30.1936L3.47452 29.8884L3.24775 29.5808L3.04275 29.2717L2.86163 28.962L2.70641 28.6529L2.57893 28.3455L2.48084 28.0409L2.41357 27.7404L2.3783 27.4452L2.3759 27.1564L2.40693 26.8751L2.47164 26.6025L2.56993 26.3396L2.70136 26.0872L2.86518 25.8461L3.06031 25.617L3.2854 25.4005L3.53883 25.197L3.81874 25.0067L4.1231 24.8297L4.44973 24.6661L4.79633 24.5156L5.16055 24.3781L5.53999 24.2532L5.93226 24.1404L6.33503 24.0391L6.74602 23.9487L7.16303 23.8686L7.58401 23.798L8.00699 23.7362L8.43018 23.6823L8.85191 23.6357L9.27066 23.5955L9.68507 23.5609L10.0939 23.5312L10.4961 23.5057L10.8908 23.4835L11.2771 23.464L11.6543 23.4466L12.0218 23.4305L12.3792 23.4152L12.7262 23.4L13.0623 23.3845L13.3875 23.368L13.7014 23.3502L14.0041 23.3304L14.2955 23.3082L14.5756 23.2832L14.8444 23.255L15.102 23.2231L15.3485 23.1872L15.584 23.1468L15.8085 23.1016L16.0223 23.0512L16.2255 22.9951L16.4182 22.9331L16.6005 22.8647L16.7727 22.7895L16.9348 22.707L17.087 22.617L17.2293 22.5188L17.3619 22.412L17.485 22.2962L17.5986 22.1709L17.7032 22.0359L17.7994 21.8912L17.8875 21.7366L17.9682 21.5721L18.0417 21.3975L18.1086 21.2126L18.1691 21.0174L18.2238 20.8117L18.2729 20.5953L18.3169 20.3681L18.3562 20.13L18.3911 19.8809L18.422 19.6206L18.4494 19.349L18.4737 19.0662L18.4952 18.7721L18.5145 18.4666L18.532 18.1499L18.5482 17.8221L18.5636 17.4833L18.5787 17.1338L18.5942 16.7739L18.6105 16.404L18.6284 16.0245L18.6485 15.6362L18.6714 15.2396L18.6979 14.8357L18.7287 14.4254L18.7646 14.0098L18.8062 13.5902L18.8545 13.168L18.9102 12.7447L18.9741 12.322L19.0469 11.9018L19.1295 11.4861L19.2224 11.0769L19.3265 10.6764L19.4422 10.287L19.5701 9.91106L19.7107 9.55089L19.8643 9.2089L20.0312 8.88745L20.2114 8.58881L20.4049 8.31513L20.6116 8.0684L20.8312 7.85042L21.0632 7.66275L21.3071 7.50668L21.5621 7.3832L21.8275 7.29302L22.1023 7.23646L22.3855 7.21355L22.676 7.22397L22.9726 7.26707L23.2742 7.34191L23.5795 7.44726L23.8874 7.58161L24.1968 7.74328L24.5064 7.93036L24.8153 8.14083L25.1224 8.37253L25.4268 8.62327L25.7277 8.89079L26.0243 9.17286L26.3161 9.46726L26.6024 9.77183L26.8828 10.0845L27.157 10.4033L27.4246 10.7263L27.6855 11.0518L27.9396 11.3782L28.1868 11.704L28.4271 12.0277L28.6607 12.3482L28.8875 12.6644L29.1079 12.9753L29.3219 13.2799L29.5299 13.5776L29.732 13.8677L29.9287 14.1495L30.1201 14.4227L30.3066 14.6868L30.4885 14.9415L30.6661 15.1865L30.8399 15.4216L31.01 15.6466L31.177 15.8614L31.341 16.066L31.5025 16.2602L31.6618 16.4441L31.8192 16.6177L31.9751 16.7809L32.1298 16.9339L32.2836 17.0766L32.4369 17.2092L32.59 17.3316L32.7432 17.4441L32.8968 17.5465L33.0512 17.6392L33.2067 17.722L33.3635 17.7952L33.522 17.8588L33.6826 17.9128L33.8454 17.9575L34.0109 17.9927L34.1794 18.0188L34.3511 18.0356L34.5264 18.0434L34.7056 18.0421L34.889 18.0319L35.0769 18.0129L35.2698 17.9851L35.4677 17.9487L35.6712 17.9036L35.8805 17.8502L36.0958 17.7884L36.3177 17.7184L36.5462 17.6404L36.7817 17.5544L37.0246 17.4608L37.2751 17.3596L37.5334 17.2513L37.7997 17.1359L38.0744 17.0138L38.3576 16.8854L38.6494 16.7511L38.9501 16.6112L39.2595 16.4664L39.5779 16.3171L39.9051 16.1639L40.2411 16.0076L40.5856 15.849L40.9386 15.6888L41.2995 15.528L41.6681 15.3676L42.0437 15.2086L42.4258 15.0523L42.8135 14.9L43.2059 14.7528L43.6022 14.6123L44.001 14.48L44.4011 14.3573L44.8012 14.2458L45.1996 14.1471L45.5948 14.0629L45.985 13.9946L46.3684 13.9438L46.7431 13.9121L47.1071 13.9007L47.4585 13.9109L47.7955 13.9439L48.116 14.0006L48.4184 14.0817L48.701 14.1877L48.9621 14.3189L49.2005 14.4754L49.4151 14.6569L49.6048 14.8629L49.769 15.0928L49.9074 15.3455L50.0196 15.6199L50.1059 15.9146L50.1665 16.2281L50.2021 16.5587L50.2135 16.9047L50.2018 17.264L50.168 17.635L50.1136 18.0155L50.04 18.4038L49.9488 18.7979L49.8416 19.1961L49.7201 19.5967L49.586 19.998L49.441 20.3987L49.2866 20.7972L49.1245 21.1924L48.9563 21.5832L48.7834 21.9686L48.6071 22.3478L48.4289 22.72L48.2499 23.0846L48.0713 23.4411L47.8941 23.7892L47.7192 24.1285L47.5477 24.4588L47.3802 24.7801L47.2176 25.0921L47.0603 25.395L46.9092 25.6888L46.7646 25.9736L46.6272 26.2495L46.4972 26.5167L46.3752 26.7754L46.2615 27.0258L46.1564 27.2683L46.0602 27.503L45.9733 27.7303L45.8959 27.9504L45.8283 28.1637L45.7708 28.3704L45.7235 28.571L45.6869 28.7656L45.6611 28.9546L45.6464 29.1384L45.6432 29.3173L45.6518 29.4916L45.6725 29.6616L45.7056 29.8277L45.7189 29.8798Z" fill="url(#paint0_linear_4875_146)"/>
<defs>
<linearGradient id="paint0_linear_4875_146" x1="-31.4048" y1="50.3307" x2="-20.1858" y2="14.4985" gradientUnits="userSpaceOnUse">
<stop offset="0.177885" stop-color="#312B61"/>
<stop offset="1" stop-color="#554BA1"/>
</linearGradient>
</defs>
</svg>
