<svg width="11" height="12" viewBox="0 0 11 12" fill="none" xmlns="http://www.w3.org/2000/svg">
<path fill-rule="evenodd" clip-rule="evenodd" d="M8.8476 6.00016L8.84904 6.03635L8.8533 6.07264L8.86033 6.10911L8.87006 6.14586L8.88245 6.18296L8.89745 6.2205L8.91502 6.25857L8.93513 6.29724L8.95772 6.33661L8.98277 6.37674L9.01023 6.41772L9.04008 6.45963L9.07226 6.50255L9.10674 6.54655L9.14346 6.5917L9.18238 6.63807L9.22343 6.68574L9.26654 6.73478L9.31164 6.78523L9.35864 6.83718L9.40743 6.89065L9.4579 6.94571L9.50992 7.00239L9.56334 7.06072L9.61798 7.12072L9.67368 7.1824L9.73021 7.24576L9.78734 7.31078L9.84482 7.37743L9.90236 7.44564L9.95968 7.51536L10.0164 7.58649L10.0723 7.65892L10.1268 7.73252L10.1797 7.80711L10.2304 7.88253L10.2787 7.95856L10.324 8.03497L10.3659 8.1115L10.404 8.1879L10.4378 8.26385L10.4669 8.33905L10.491 8.41319L10.5096 8.48594L10.5225 8.55696L10.5293 8.62594L10.5298 8.69255L10.5239 8.75648L10.5114 8.81746L10.4923 8.87522L10.4665 8.92953L10.4342 8.98019L10.3956 9.02704L10.3507 9.06995L10.2999 9.10886L10.2435 9.1437L10.1819 9.1745L10.1154 9.20128L10.0446 9.22413L9.96977 9.24315L9.89147 9.25849L9.81015 9.27033L9.72631 9.27885L9.6404 9.28427L9.55288 9.28681L9.46418 9.28671L9.37471 9.28422L9.28486 9.27957L9.195 9.27303L9.10544 9.26482L9.01649 9.25519L8.92841 9.24436L8.84145 9.23256L8.75581 9.21999L8.67167 9.20687L8.58917 9.19337L8.50846 9.17967L8.42964 9.16593L8.35277 9.15231L8.27794 9.13895L8.20519 9.12599L8.13454 9.11353L8.066 9.10169L7.99959 9.09057L7.9353 9.08026L7.8731 9.07085L7.81297 9.06241L7.75488 9.05502L7.69879 9.04874L7.64465 9.04364L7.59242 9.03975L7.54205 9.03715L7.49348 9.03587L7.44666 9.03597L7.40152 9.03748L7.35802 9.04044L7.31608 9.0449L7.27565 9.05089L7.23668 9.05845L7.19908 9.06761L7.16282 9.07841L7.12782 9.09087L7.09403 9.10505L7.06138 9.12097L7.02981 9.13867L6.99927 9.15818L6.96969 9.17953L6.94101 9.20277L6.91318 9.22792L6.88612 9.25503L6.85979 9.28412L6.83412 9.31524L6.80905 9.34841L6.78451 9.38368L6.76045 9.42107L6.7368 9.46061L6.71349 9.50235L6.69046 9.54629L6.66763 9.59247L6.64495 9.64091L6.62233 9.69162L6.59971 9.74462L6.57701 9.79991L6.55416 9.85748L6.53107 9.91732L6.50766 9.97941L6.48385 10.0437L6.45955 10.1102L6.43469 10.1788L6.40916 10.2494L6.38288 10.322L6.35576 10.3963L6.32771 10.4724L6.29863 10.55L6.26845 10.6289L6.23706 10.7089L6.20439 10.7898L6.17035 10.8714L6.13487 10.9532L6.09789 11.035L6.05933 11.1164L6.01915 11.197L5.97732 11.2764L5.9338 11.3541L5.88858 11.4297L5.84167 11.5027L5.79309 11.5726L5.74288 11.6389L5.69111 11.701L5.63785 11.7585L5.5832 11.8108L5.52729 11.8576L5.47025 11.8983L5.41225 11.9326L5.35346 11.9602L5.29407 11.9808L5.23427 11.9941L5.17428 12L5.1143 11.9984L5.05454 11.9894L4.99522 11.9729L4.93654 11.9492L4.8787 11.9185L4.82187 11.881L4.76623 11.837L4.71191 11.787L4.65906 11.7314L4.60778 11.6707L4.55816 11.6053L4.51026 11.5358L4.46414 11.4627L4.41983 11.3865L4.37732 11.3076L4.33661 11.2267L4.29767 11.1442L4.26047 11.0605L4.22494 10.9761L4.19103 10.8914L4.15866 10.8068L4.12774 10.7226L4.09819 10.6391L4.06992 10.5566L4.04283 10.4753L4.01681 10.3955L3.99177 10.3174L3.96761 10.2411L3.94423 10.1668L3.92152 10.0946L3.89938 10.0246L3.87772 9.95695L3.85643 9.89161L3.83543 9.82868L3.81462 9.7682L3.7939 9.71021L3.77319 9.65473L3.75239 9.60176L3.73142 9.55132L3.71019 9.50341L3.68861 9.45802L3.6666 9.41516L3.64406 9.37481L3.62091 9.33696L3.59707 9.30162L3.57243 9.26876L3.54692 9.23839L3.52042 9.2105L3.49285 9.18509L3.46411 9.16216L3.43408 9.14172L3.40265 9.12378L3.36976 9.10828L3.33534 9.09513L3.29936 9.08423L3.26176 9.07549L3.2225 9.06882L3.18151 9.06415L3.13876 9.0614L3.09419 9.0605L3.04775 9.06137L2.99939 9.06394L2.94905 9.06814L2.89669 9.07389L2.84228 9.08112L2.78575 9.08976L2.72708 9.09972L2.66624 9.11092L2.60319 9.12327L2.53792 9.13666L2.47042 9.15101L2.40069 9.1662L2.32874 9.1821L2.2546 9.19859L2.1783 9.21554L2.09991 9.23278L2.01951 9.25017L1.93718 9.26751L1.85305 9.28464L1.76727 9.30135L1.68001 9.31742L1.59146 9.33265L1.50187 9.34678L1.41148 9.35959L1.3206 9.37081L1.22953 9.38019L1.13864 9.38746L1.0483 9.39236L0.958919 9.39463L0.87093 9.394L0.78478 9.39023L0.700935 9.3831L0.619866 9.37237L0.542049 9.35785L0.467953 9.33939L0.398037 9.31685L0.332736 9.29012L0.272459 9.25915L0.217576 9.22392L0.168414 9.18444L0.125251 9.14079L0.0883056 9.09308L0.0577382 9.04145L0.0336448 8.9861L0.0160563 8.92725L0.00493907 8.86516L0.000196115 8.80011L0.00167031 8.73241L0.00914874 8.66238L0.0223682 8.59036L0.0410213 8.51668L0.0647636 8.44167L0.0932206 8.36567L0.125995 8.289L0.162675 8.21196L0.202839 8.13484L0.246063 8.05791L0.291926 7.98141L0.340019 7.90557L0.38994 7.83059L0.441309 7.75663L0.49376 7.68385L0.546951 7.61238L0.600563 7.54232L0.654298 7.47376L0.707883 7.40675L0.76107 7.34135L0.813631 7.27758L0.865363 7.21545L0.916084 7.15498L0.96563 7.09614L1.01386 7.03891L1.06065 6.98327L1.10588 6.92918L1.14946 6.87658L1.19132 6.82543L1.23138 6.77568L1.26958 6.72726L1.30588 6.68011L1.34023 6.63416L1.3726 6.58936L1.40296 6.54562L1.4313 6.50288L1.45759 6.46107L1.48183 6.42011L1.504 6.37995L1.5241 6.3405L1.54212 6.30169L1.55806 6.26346L1.57192 6.22572L1.5837 6.18842L1.59339 6.15148L1.60101 6.11483L1.60654 6.0784L1.60999 6.04212L1.61136 6.00592L1.61066 5.96973L1.60787 5.93349L1.603 5.89711L1.59605 5.86054L1.58701 5.8237L1.5759 5.78652L1.5627 5.74893L1.54742 5.71086L1.53006 5.67225L1.51063 5.63301L1.48911 5.59308L1.46554 5.55238L1.4399 5.51085L1.41221 5.46842L1.38249 5.425L1.35075 5.38054L1.31703 5.33497L1.28135 5.28821L1.24375 5.2402L1.20428 5.19088L1.16299 5.14018L1.11995 5.08805L1.07523 5.03444L1.02892 4.97929L0.981142 4.92258L0.932 4.86426L0.881637 4.8043L0.830208 4.7427L0.77789 4.67946L0.724879 4.61457L0.671395 4.54807L0.617679 4.48L0.563997 4.4104L0.510638 4.33937L0.457915 4.267L0.406164 4.19341L0.35574 4.11873L0.307023 4.04314L0.260405 3.96683L0.216295 3.89001L0.175111 3.81293L0.137275 3.73583L0.103211 3.65901L0.0733349 3.58276L0.0480489 3.5074L0.0277358 3.43326L0.0127503 3.36067L0.00341235 3.28997L0 3.22149L0.00274279 3.15557L0.0118161 3.0925L0.0273366 3.03259L0.0493583 2.9761L0.0778709 2.92326L0.112799 2.87428L0.154003 2.82933L0.201281 2.78851L0.254375 2.75193L0.312972 2.7196L0.376715 2.69152L0.445208 2.66766L0.518021 2.64791L0.594703 2.63215L0.674788 2.62024L0.7578 2.61198L0.843267 2.60716L0.93072 2.60556L1.0197 2.60693L1.10978 2.61102L1.20054 2.61757L1.29159 2.6263L1.38257 2.63697L1.47315 2.6493L1.56303 2.66303L1.65193 2.67794L1.73963 2.69377L1.8259 2.7103L1.91057 2.72731L1.99349 2.74461L2.07452 2.762L2.15356 2.77931L2.23053 2.79637L2.30536 2.81302L2.37801 2.82912L2.44845 2.84455L2.51666 2.85918L2.58264 2.87289L2.64639 2.88558L2.70794 2.89716L2.7673 2.90752L2.8245 2.91659L2.87959 2.92428L2.93259 2.93051L2.98357 2.93521L3.03256 2.93831L3.07961 2.93973L3.12477 2.9394L3.16809 2.93724L3.20963 2.93319L3.24944 2.92717L3.28756 2.9191L3.32405 2.9089L3.35896 2.89647L3.39234 2.88173L3.42422 2.86458L3.45469 2.84493L3.48383 2.8228L3.51176 2.79818L3.53859 2.77108L3.5644 2.7415L3.58931 2.70943L3.6134 2.67488L3.63676 2.63783L3.65948 2.59828L3.68165 2.55622L3.70336 2.51164L3.72469 2.46453L3.74574 2.41489L3.76658 2.36273L3.78731 2.30805L3.80801 2.25085L3.82879 2.19117L3.84972 2.12902L3.8709 2.06444L3.89243 1.99748L3.91441 1.92821L3.93693 1.85671L3.96009 1.78307L3.98399 1.70741L4.00873 1.62986L4.03443 1.55059L4.06117 1.46978L4.08905 1.38764L4.11818 1.30442L4.14865 1.22039L4.18055 1.13586L4.21397 1.05114L4.24897 0.966613L4.28564 0.88267L4.32402 0.799734L4.36416 0.718258L4.40609 0.638715L4.44983 0.561599L4.49538 0.48742L4.54271 0.416695L4.59179 0.349943L4.64255 0.287677L4.69491 0.230396L4.74878 0.178576L4.80401 0.132662L4.86048 0.0930565L4.91802 0.060116L4.97645 0.0341388L5.03559 0.0153608L5.09523 0.00394936L5.15516 0L5.21517 0.00353383L5.27506 0.0144974L5.3346 0.0327639L5.39361 0.0581367L5.45188 0.0903535L5.50924 0.129093L5.56552 0.173981L5.62059 0.2246L5.6743 0.280496L5.72656 0.341189L5.77727 0.40618L5.82638 0.474962L5.87382 0.547023L5.91958 0.621859L5.96364 0.698976L6.00601 0.777897L6.04671 0.858168L6.08578 0.939357L6.12326 1.02106L6.15921 1.10291L6.1937 1.18456L6.2268 1.26569L6.25858 1.34603L6.28914 1.42533L6.31856 1.50335L6.34693 1.57992L6.37434 1.65484L6.40087 1.72799L6.42663 1.79924L6.4517 1.86849L6.47617 1.93565L6.50012 2.00066L6.52365 2.06346L6.54683 2.12402L6.56976 2.18232L6.5925 2.23833L6.61513 2.29206L6.63774 2.3435L6.6604 2.39266L6.68317 2.43956L6.70612 2.48421L6.72934 2.52665L6.75288 2.56689L6.7768 2.60496L6.80118 2.6409L6.82607 2.67473L6.85155 2.7065L6.87766 2.73624L6.90448 2.76397L6.93206 2.78974L6.96046 2.81359L6.98974 2.83554L7.01997 2.85563L7.05121 2.8739L7.08351 2.89038L7.11693 2.90511L7.15154 2.91812L7.18739 2.92945L7.22455 2.93913L7.26308 2.94719L7.30304 2.95367L7.34449 2.95861L7.38749 2.96205L7.4321 2.96402L7.47838 2.96456L7.52639 2.96372L7.57618 2.96153L7.62781 2.95805L7.68133 2.95333L7.7368 2.94742L7.79425 2.94037L7.85372 2.93226L7.91526 2.92316L7.97888 2.91313L8.04462 2.90225L8.11248 2.89063L8.18245 2.87836L8.25454 2.86554L8.32872 2.85229L8.40494 2.83874L8.48314 2.82503L8.56327 2.8113L8.6452 2.79772L8.72884 2.78445L8.81402 2.77169L8.90058 2.75962L8.98833 2.74846L9.07703 2.73842L9.16642 2.72973L9.25622 2.72263L9.34611 2.71735L9.43574 2.71415L9.52473 2.71326L9.61268 2.71494L9.69915 2.71941L9.7837 2.72692L9.86587 2.73768L9.94518 2.75189L10.0212 2.76972L10.0933 2.79134L10.1612 2.81685L10.2245 2.84636L10.2825 2.87992L10.3351 2.91753L10.3819 2.95917L10.4226 3.00478L10.4569 3.05424L10.4848 3.10741L10.506 3.16409L10.5206 3.22407L10.5287 3.2871L10.5302 3.35289L10.5253 3.42114L10.5144 3.49155L10.4975 3.56378L10.4752 3.63751L10.4476 3.71242L10.4152 3.78816L10.3785 3.86445L10.3377 3.94097L10.2935 4.01745L10.2461 4.09362L10.1961 4.16926L10.1439 4.24414L10.0898 4.31807L10.0343 4.39088L9.97783 4.46244L9.92066 4.53262L9.86315 4.60133L9.80562 4.66848L9.74835 4.73402L9.6916 4.79791L9.63562 4.86013L9.58062 4.92066L9.52679 4.97953L9.47431 5.03673L9.42333 5.0923L9.37399 5.14627L9.32641 5.1987L9.2807 5.24962L9.23694 5.2991L9.19522 5.3472L9.15562 5.39398L9.11819 5.43952L9.08299 5.48387L9.05007 5.52712L9.01948 5.56935L8.99125 5.61062L8.96543 5.65101L8.94205 5.69061L8.92115 5.7295L8.90277 5.76775L8.88695 5.80545L8.87372 5.84268L8.86314 5.87953L8.85524 5.91608L8.85009 5.95242L8.84775 5.98863L8.8476 6.00016Z" fill="url(#paint0_linear_4717_327)"/>
<defs>
<linearGradient id="paint0_linear_4717_327" x1="-6.25287" y1="-2.38525" x2="-2.03885" y2="-13.4322" gradientUnits="userSpaceOnUse">
<stop stop-color="#FCEADC"/>
<stop offset="1" stop-color="#691AF0"/>
</linearGradient>
</defs>
</svg>
