<svg width="14" height="14" viewBox="0 0 14 14" fill="none" xmlns="http://www.w3.org/2000/svg">
<path d="M7 1.75L5.89167 5.13333C5.83491 5.30904 5.73727 5.46877 5.60675 5.59939C5.47624 5.73001 5.31658 5.82778 5.14092 5.88467L1.75 7L5.13333 8.10833C5.30904 8.16509 5.46877 8.26273 5.59939 8.39325C5.73001 8.52376 5.82778 8.68342 5.88467 8.85908L7 12.25L8.10833 8.86667C8.16509 8.69096 8.26273 8.53123 8.39325 8.40061C8.52376 8.26999 8.68342 8.17222 8.85908 8.11533L12.25 7L8.86667 5.89167C8.69096 5.83491 8.53123 5.73727 8.40061 5.60675C8.26999 5.47624 8.17222 5.31658 8.11533 5.14092L7 1.75Z" fill="#8F8CC3" stroke="#8F8CC3" stroke-width="2" stroke-linecap="round" stroke-linejoin="round"/>
</svg>
