<svg width="36" height="36" viewBox="0 0 36 36" fill="none" xmlns="http://www.w3.org/2000/svg">
<path d="M11.1125 6.63205C11.4063 7.11805 11.7519 7.57669 12.1565 7.97341C12.3581 8.17213 12.5705 8.35861 12.7981 8.52493C13.0256 8.69053 13.2639 8.83885 13.513 8.96629C13.7233 9.07501 13.9429 9.16141 14.1653 9.23773L14.1891 9.24565C14.4267 9.32773 14.5534 9.58693 14.4713 9.82453C14.4296 9.94621 14.3403 10.0391 14.2323 10.0895C13.8622 10.2609 13.4885 10.4121 13.1307 10.5661C12.8189 10.7008 12.5194 10.834 12.2415 10.9859C11.9629 11.1364 11.7087 11.3106 11.4718 11.5101C11.4128 11.5597 11.3537 11.6101 11.2983 11.6648L11.2133 11.7448C11.186 11.7714 11.1673 11.7966 11.1442 11.8218C11.0996 11.8729 11.0528 11.919 11.011 11.9831C10.9685 12.0443 10.9232 12.099 10.8829 12.1653L10.7619 12.3625C10.7223 12.4295 10.6863 12.5015 10.6489 12.5706L10.5927 12.675L10.5409 12.7844L10.4372 13.0026C10.1737 13.5973 9.95551 14.2252 9.77263 14.8617C9.68479 15.1806 9.59911 15.501 9.53215 15.8221C9.46519 16.1418 9.40471 16.4651 9.37519 16.7704C9.34639 17.0692 9.08071 17.2881 8.78191 17.2593C8.55439 17.2369 8.37295 17.0778 8.31247 16.8704L8.31103 16.864C8.19799 16.4737 8.12671 16.1029 8.05687 15.735L7.86175 14.6471C7.75519 14.0574 7.64143 13.4756 7.48375 12.9328C7.40311 12.6642 7.30879 12.4064 7.19863 12.184L7.1115 12.0299C7.07694 11.9773 7.03879 11.9233 7.00279 11.87C6.92503 11.7649 6.84439 11.6605 6.75367 11.5612C6.57583 11.361 6.37638 11.1717 6.16254 10.9938C5.94726 10.8181 5.71902 10.6533 5.48142 10.4999C5.00622 10.1939 4.49286 9.93469 3.96726 9.72949C3.67206 9.61429 3.5259 9.28093 3.64182 8.98573C3.70086 8.83381 3.8175 8.72149 3.95718 8.66389L3.96222 8.66173C4.37766 8.49181 4.79238 8.32117 5.17902 8.12029C5.57286 7.92733 5.93502 7.70125 6.26838 7.44997L6.51246 7.25557L6.73638 7.04317C6.81486 6.97549 6.87823 6.89485 6.94663 6.81853C7.01215 6.74005 7.08702 6.66877 7.14318 6.58165L7.32391 6.33181C7.38079 6.24541 7.43046 6.15325 7.48446 6.06541L7.56438 5.93149C7.58886 5.88469 7.61046 5.83645 7.6335 5.78965L7.77103 5.50525C8.00647 4.96093 8.21239 4.37629 8.38807 3.78589C8.42695 3.64333 8.46871 3.51373 8.51335 3.39709C8.53567 3.33877 8.55871 3.28333 8.58247 3.23077C8.58895 3.21493 8.59255 3.21133 8.59759 3.20413C8.60191 3.19765 8.60695 3.19117 8.61199 3.18541C8.62207 3.17317 8.63287 3.16165 8.64511 3.15013C8.69263 3.10405 8.75815 3.05653 8.82151 2.99029C8.88559 2.92477 8.94535 2.84341 8.99287 2.75773C9.13111 2.50357 9.14983 2.35165 9.23839 2.45029C9.25999 2.47549 9.28591 2.51797 9.31471 2.58421C9.34351 2.64973 9.37447 2.74117 9.39679 2.85781C9.41911 2.97373 9.4299 3.11341 9.42486 3.25957C9.42342 3.29557 9.42127 3.33445 9.41911 3.36829C9.41695 3.39277 9.41551 3.41797 9.41335 3.44389C9.40903 3.49573 9.40327 3.54901 9.39607 3.60445C9.37879 3.74485 9.3579 3.88741 9.33486 4.03213C9.31038 4.17685 9.27295 4.32229 9.23911 4.46845C9.17647 4.76149 9.07063 5.05237 8.97559 5.33317C8.92591 5.45989 8.87119 5.58517 8.81935 5.71117L8.74087 5.89981L8.64871 6.08413C8.58535 6.20653 8.52775 6.33109 8.45935 6.45061L8.24263 6.80557C7.93519 7.26925 7.56295 7.69477 7.14175 8.05621L6.81775 8.31469C6.70759 8.39677 6.5931 8.47021 6.48006 8.54869C6.36846 8.62933 6.2511 8.69485 6.13446 8.76397C6.01782 8.83237 5.90262 8.90509 5.7831 8.96341L5.42814 9.14917L5.06958 9.31909L4.8903 9.40333L4.7103 9.48181L4.34958 9.63949L4.34526 8.74525C4.89462 8.94613 5.4231 9.19021 5.93142 9.48109C6.2619 9.67045 6.59166 9.88141 6.90054 10.1262C7.20942 10.3703 7.4967 10.6489 7.73142 10.9643C7.80774 11.0737 7.88767 11.1781 7.95679 11.2941C7.99207 11.3524 8.02951 11.4035 8.06263 11.4683L8.16127 11.6569C8.19727 11.7203 8.21671 11.7815 8.24479 11.8441C8.26999 11.906 8.29879 11.9687 8.32039 12.0299C8.36071 12.1523 8.40967 12.2761 8.44279 12.3971C8.58967 12.8838 8.68903 13.3619 8.78047 13.8357C8.87047 14.3094 8.94823 14.7796 9.02815 15.2418C9.10879 15.7026 9.18943 16.1627 9.30031 16.5781L8.34775 16.6617C8.39095 16.2829 8.46655 15.9316 8.55151 15.5817C8.65447 15.1641 8.77327 14.7551 8.90503 14.3483C9.03607 13.9415 9.17934 13.5383 9.34494 13.1401C9.51054 12.742 9.68767 12.3467 9.91519 11.9615C10.0297 11.7693 10.1521 11.5785 10.2997 11.3927C10.3177 11.3697 10.3342 11.3459 10.3544 11.3228L10.417 11.2545L10.5437 11.1191C10.5862 11.0737 10.6273 11.0413 10.6697 11.0025C10.7122 10.965 10.7525 10.9261 10.7965 10.8908C11.0261 10.6943 11.2774 10.5193 11.5373 10.366C11.7973 10.2126 12.0651 10.0837 12.3301 9.96853C12.8614 9.73957 13.3741 9.55237 13.8622 9.32269L13.9191 10.0477C13.4439 9.89509 12.9932 9.67837 12.577 9.41485C12.163 9.14773 11.7843 8.83453 11.4409 8.49037C11.0996 8.14405 10.795 7.76533 10.525 7.36501C10.2557 6.96541 10.0282 6.53269 9.83671 6.09637C9.59263 5.53549 9.42343 4.96957 9.31399 4.42021C9.20311 3.87085 9.15271 3.33661 9.15199 2.82973C9.15271 2.63893 9.19375 2.52373 9.25351 2.49205L9.18799 2.65765C9.17215 2.67205 9.14839 2.68501 9.12463 2.69077C9.10087 2.69653 9.07855 2.69653 9.06271 2.69509C9.03031 2.69149 9.01807 2.68717 9.01519 2.69149C9.01375 2.69509 9.02239 2.70877 9.05839 2.72245C9.07639 2.72893 9.10231 2.73469 9.13255 2.73181C9.16279 2.72965 9.19591 2.71885 9.22039 2.70373L9.30823 2.48125C9.38599 2.48989 9.47743 2.61157 9.55519 2.84701C9.78775 3.55261 10.0282 4.28269 10.309 4.97749C10.538 5.54773 10.777 6.12445 11.0945 6.63277C11.0996 6.63133 11.1046 6.62989 11.1111 6.62845L11.1125 6.63205Z" fill="#FCEADC"/>
<path d="M23.6767 13.9586C23.7739 14.2408 23.8776 14.5209 23.9856 14.7967C24.013 14.8643 24.0403 14.9363 24.0677 14.9997C24.095 15.0595 24.1188 15.1214 24.149 15.1804C24.2074 15.2985 24.2714 15.4144 24.3427 15.5253C24.6286 15.971 25.026 16.3526 25.4962 16.6507C25.8965 16.9106 26.3494 17.1122 26.8202 17.2648C27.0578 17.3419 27.1874 17.5967 27.1111 17.8336C27.0737 17.9495 26.9938 18.0395 26.8951 18.0928L26.8829 18.0993C26.7835 18.1526 26.6827 18.2008 26.587 18.2613C26.0347 18.5932 25.5386 19.0418 25.1074 19.5451C24.6754 20.0491 24.3082 20.6128 24.013 21.2075C23.7185 21.8023 23.4946 22.4308 23.3765 23.068C23.2591 23.7038 23.2476 24.3511 23.393 24.9386L22.3224 25.1575C22.2094 24.5325 22.0992 23.9119 21.9653 23.3049C21.845 22.7584 21.7082 22.2206 21.5369 21.7007C21.3648 21.1816 21.1589 20.6798 20.9083 20.2075C20.845 20.0908 20.778 19.9742 20.7118 19.8604C20.6441 19.7495 20.5742 19.6408 20.4994 19.5371C20.3503 19.3283 20.1876 19.1347 20.0119 18.9647C19.6598 18.6235 19.253 18.3952 18.8362 18.3398C18.5222 18.298 18.3012 18.0093 18.343 17.6954C18.3674 17.5132 18.474 17.3627 18.6202 17.2763L18.6245 17.2742C19.0054 17.0524 19.3574 16.7882 19.662 16.4728C19.7412 16.3972 19.8103 16.3115 19.8845 16.2309C19.9529 16.1445 20.0249 16.0617 20.089 15.9717C20.2222 15.796 20.341 15.6074 20.4511 15.413C20.8932 14.6339 21.1582 13.7354 21.3238 12.8123C21.431 12.2083 21.5347 11.5876 21.6103 10.9706C21.6456 10.6754 21.6982 10.4313 21.7637 10.2311C21.7961 10.1311 21.8328 10.0418 21.8724 9.96258C21.8918 9.89922 21.9178 9.82866 21.9487 9.7761C21.9797 9.72138 22.0142 9.68106 22.0423 9.65586C22.2036 9.53274 22.0798 9.74946 22.272 9.92514C22.3188 9.96474 22.3872 9.97842 22.4318 9.97194C22.4542 9.97122 22.4707 9.9633 22.4815 9.96906C22.4916 10.0029 22.5017 10.0382 22.5103 10.0763C22.5478 10.2283 22.5722 10.4162 22.5802 10.6365C22.5996 11.1945 22.555 11.8072 22.4628 12.3825C22.3742 12.9362 22.2605 13.4877 22.1042 14.0335C22.0258 14.3056 21.9386 14.5771 21.8357 14.8435C21.7342 15.1106 21.6204 15.3748 21.4894 15.6319C21.2309 16.1474 20.9047 16.6384 20.5116 17.0755C20.3136 17.2929 20.1012 17.4974 19.8737 17.686C19.6447 17.8718 19.4035 18.0417 19.1522 18.1958L18.9715 17.2864C19.4935 17.3447 19.9853 17.5571 20.3899 17.8437C20.7305 18.0835 21.0329 18.3722 21.2849 18.6854C21.413 18.8416 21.5275 19.0043 21.6312 19.1707L21.7068 19.2959C21.7298 19.3377 21.7522 19.3795 21.7752 19.4212C21.8191 19.5047 21.8645 19.5875 21.9034 19.6718C22.3102 20.5322 22.5931 21.425 22.8156 22.3156C23.0374 23.2077 23.1972 24.1012 23.3441 24.9825L23.3455 24.9911C23.3894 25.2568 23.2102 25.5088 22.9438 25.5527C22.6874 25.5952 22.4441 25.4289 22.3872 25.1783C22.2778 24.6916 22.2482 24.1977 22.2878 23.7189C22.3642 22.8218 22.6176 21.9679 22.9783 21.1723C23.3426 20.3781 23.8164 19.6379 24.3946 18.9835C24.9835 18.3182 25.6834 17.7321 26.5114 17.3325L26.5668 18.0755C26.3047 17.9848 26.0434 17.8912 25.7892 17.7724C25.5343 17.6587 25.2859 17.5247 25.0462 17.3743C24.8057 17.2259 24.5782 17.0524 24.3643 16.8631C24.1505 16.6737 23.9525 16.4627 23.7797 16.2323C23.6062 16.0027 23.455 15.7557 23.3318 15.4958C23.303 15.431 23.2699 15.364 23.244 15.3014L23.167 15.1149C23.1158 14.9903 23.0676 14.8658 23.0194 14.7405C22.8286 14.2401 22.6536 13.7361 22.4952 13.2249C22.3188 12.6547 22.1827 12.0866 22.11 11.53C22.0394 10.9756 22.025 10.4248 22.1352 9.92802C22.1698 9.80058 22.213 9.71562 22.2583 9.6753L22.2482 9.61842C22.2439 9.5925 22.2302 9.56154 22.2101 9.53706C22.1899 9.51186 22.1669 9.49458 22.1489 9.48234C22.1129 9.45786 22.0942 9.4449 22.0906 9.4305C22.0884 9.41754 22.0978 9.39954 22.1554 9.39522C22.1834 9.39378 22.2281 9.39954 22.2778 9.42618C22.3274 9.45138 22.3735 9.49818 22.4016 9.5421L22.429 9.6933C22.4527 9.72282 22.4729 9.76602 22.4894 9.82074C22.5067 9.87618 22.5132 9.94098 22.5283 10.0259C22.542 10.1109 22.5485 10.1937 22.5672 10.2808C22.5838 10.3672 22.6003 10.4543 22.6176 10.5415C22.6594 10.7179 22.6975 10.8943 22.7472 11.0735C22.8415 11.4307 22.9495 11.7928 23.0669 12.1528C23.257 12.7447 23.4413 13.3617 23.6645 13.9564C23.6702 13.9564 23.6753 13.9564 23.6818 13.9564L23.6767 13.9586Z" fill="#FCEADC"/>
<path d="M14.3595 24.5138C14.5381 25.0257 14.8405 25.457 15.2747 25.7651C15.315 25.799 15.3625 25.8242 15.4079 25.8515L15.5454 25.9343C15.6419 25.9833 15.7427 26.025 15.842 26.0697L15.8773 26.0855C16.1034 26.187 16.2042 26.452 16.1027 26.6781C16.0523 26.7911 15.9587 26.8732 15.8514 26.9143C15.7722 26.9445 15.6937 26.9747 15.6174 27.0064C15.459 27.0719 15.3085 27.1375 15.1753 27.208C15.0421 27.2793 14.9255 27.3542 14.8211 27.4435C14.6137 27.6206 14.4308 27.8668 14.2767 28.1354C14.1241 28.4054 13.9988 28.6963 13.9239 28.9807C13.8476 29.2622 13.8325 29.5466 13.8901 29.7201L12.8346 29.9843C12.7532 29.6287 12.6668 29.2831 12.561 28.9547C12.3983 28.4507 12.1851 27.9878 11.8849 27.6163C11.5854 27.2426 11.2016 26.9582 10.7927 26.848C10.4874 26.7659 10.3074 26.452 10.3895 26.1467C10.4298 25.9977 10.5255 25.8782 10.6487 25.8047L10.6746 25.7896L10.8143 25.7068L10.8841 25.6658L10.9503 25.6183L11.0843 25.5239L11.211 25.4174L11.2743 25.3641L11.3341 25.3058L11.4543 25.1884L11.5667 25.0617L11.6228 24.9983C11.6408 24.9767 11.6581 24.953 11.6754 24.9307C11.9598 24.5721 12.1952 24.1588 12.3803 23.7153C12.4991 23.4367 12.6387 23.1566 12.759 22.87C12.8202 22.7347 12.8871 22.6252 12.9721 22.5417C13.0535 22.4567 13.1463 22.3955 13.2464 22.3531C13.3919 22.2911 13.5236 22.3142 13.6143 22.415C13.7043 22.5151 13.7576 22.6943 13.7303 22.9283C13.6971 23.2243 13.6035 23.5382 13.479 23.8211C13.4214 23.9623 13.3523 24.1005 13.2889 24.2395L13.1845 24.4447L13.1319 24.5469L13.0751 24.6477C12.9296 24.9184 12.7583 25.1791 12.5747 25.4311C12.3903 25.6838 12.1772 25.9199 11.9483 26.1431C11.7143 26.3627 11.4536 26.5586 11.1728 26.7314L11.0706 25.8191C11.2931 25.8695 11.5091 25.9473 11.7121 26.0459C12.1131 26.2375 12.4904 26.5197 12.7259 26.8653C12.8857 27.0943 13.0225 27.3362 13.142 27.5774C13.2615 27.8186 13.3609 28.0641 13.4495 28.3089C13.6237 28.7999 13.7461 29.291 13.8404 29.7719L13.8426 29.7842C13.8944 30.0477 13.7231 30.304 13.4595 30.3559C13.2083 30.4055 12.9635 30.2507 12.8958 30.0081C12.8259 29.7554 12.8238 29.5142 12.8497 29.2924C12.8807 29.0325 12.9455 28.7935 13.0247 28.5667C13.1046 28.3399 13.2011 28.1246 13.3112 27.9165C13.4214 27.7091 13.5452 27.5097 13.6892 27.3182C13.8339 27.1274 13.9967 26.9431 14.1961 26.7818C14.4063 26.6083 14.6483 26.4729 14.8772 26.3743C15.1083 26.2727 15.3265 26.1986 15.5396 26.1215L15.5483 26.8696C15.0011 26.6579 14.4863 26.308 14.1032 25.8479C14.0571 25.7896 14.0139 25.7291 13.9693 25.6694L13.9038 25.5794C13.8836 25.5484 13.8656 25.5167 13.8462 25.4851L13.7331 25.2957L13.6374 25.0991L13.5899 25.0012L13.5503 24.9011L13.4718 24.7003L13.4077 24.4965C13.3861 24.4288 13.3652 24.3611 13.3501 24.292C13.3307 24.2143 13.3127 24.1365 13.2968 24.0595C13.2846 23.9824 13.2731 23.9054 13.2637 23.8291C13.2529 23.7527 13.2479 23.6771 13.2457 23.6023C13.2428 23.5274 13.2407 23.4532 13.2421 23.3798C13.2522 23.086 13.2968 22.8067 13.3883 22.546C13.4711 22.3063 13.7108 22.3127 13.7821 22.5712C13.8851 22.9377 13.9765 23.3121 14.0787 23.6663C14.1601 23.9579 14.2271 24.2524 14.3401 24.5181C14.3451 24.5167 14.3502 24.5159 14.3559 24.5145L14.3595 24.5138Z" fill="#FCEADC"/>
<path d="M29.6231 28.4998C29.6368 28.5589 29.6505 28.6201 29.6656 28.6762C29.6728 28.7058 29.6807 28.7324 29.6879 28.7569C29.6951 28.7821 29.7023 28.808 29.7117 28.8325C29.7455 28.9326 29.788 29.0319 29.8391 29.1234C29.9413 29.3077 30.0753 29.4704 30.2308 29.5878C30.3172 29.6518 30.4101 29.703 30.5087 29.7354L30.5404 29.7462C30.7758 29.8239 30.904 30.0781 30.8255 30.3135C30.7888 30.4244 30.7117 30.5122 30.6174 30.5648C30.5166 30.621 30.4216 30.685 30.3359 30.7599C30.1581 30.9162 30.0097 31.1062 29.8701 31.3273C29.8002 31.4374 29.7318 31.5555 29.6627 31.6786L29.5569 31.8673C29.5245 31.9263 29.4971 31.9767 29.4705 32.0336C29.3646 32.2546 29.2876 32.485 29.2552 32.7111C29.2213 32.9372 29.23 33.1554 29.2818 33.3534L28.2256 33.5823C28.1428 33.2094 28.0542 32.8486 27.939 32.511C27.8015 32.1056 27.6265 31.7348 27.3904 31.4252C27.1549 31.1142 26.8641 30.865 26.5437 30.7275C26.2535 30.6022 26.1189 30.2653 26.2441 29.9751C26.2996 29.8462 26.3968 29.7483 26.5134 29.69L26.5408 29.6763L26.6711 29.6108L26.7366 29.5791L26.7985 29.541L26.9224 29.4646L27.039 29.3768L27.0981 29.3336L27.1528 29.2839L27.2622 29.186L27.363 29.0773C27.3796 29.0593 27.3976 29.042 27.4134 29.0233L27.4595 28.9642C27.4905 28.9246 27.5221 28.8865 27.5524 28.8462L27.6373 28.7202C27.6669 28.6791 27.6921 28.6345 27.7173 28.5898C27.7425 28.5452 27.7691 28.5013 27.7929 28.4559C27.8361 28.3616 27.8865 28.2716 27.9225 28.1722C27.9419 28.1233 27.9621 28.0758 27.9808 28.0261L28.0305 27.8756C28.1039 27.6358 28.2018 27.3946 28.2717 27.1441C28.3077 27.026 28.3559 26.9238 28.425 26.8482C28.4524 26.8626 28.5071 26.8957 28.5777 26.8899C28.6482 26.8856 28.713 26.8359 28.7454 26.7733C28.8376 26.5839 28.7598 26.4284 28.8657 26.4097C28.8923 26.4068 28.9348 26.4154 28.9917 26.4565C29.0478 26.4961 29.1148 26.576 29.1537 26.6761C29.1738 26.7258 29.1875 26.7776 29.1969 26.828C29.2005 26.851 29.2041 26.8741 29.2077 26.8978C29.2105 26.9086 29.2134 26.9194 29.2163 26.931C29.2271 26.9763 29.2343 27.0253 29.2379 27.0786C29.2501 27.2132 29.2357 27.3536 29.2199 27.494C29.2091 27.5638 29.194 27.6337 29.1789 27.7028C29.1709 27.7374 29.163 27.7719 29.1544 27.8058C29.1436 27.8396 29.1335 27.8734 29.1234 27.9066C28.9513 28.4646 28.7001 29.0017 28.348 29.4848C28.1716 29.726 27.9642 29.947 27.7367 30.1494C27.5056 30.3495 27.2471 30.5173 26.9735 30.6634L26.9706 29.7368C27.0887 29.7829 27.2068 29.8318 27.3184 29.8909C27.6654 30.068 27.9966 30.3178 28.1982 30.6246C28.7857 31.5145 29.0687 32.4735 29.2285 33.3822L29.2336 33.4095C29.2797 33.6716 29.1047 33.9222 28.8419 33.9682C28.5827 34.0136 28.3357 33.843 28.2846 33.5866C28.2623 33.475 28.2465 33.362 28.2414 33.2504C28.2184 32.7918 28.3113 32.3533 28.4682 31.9587C28.5467 31.7614 28.6432 31.5706 28.7519 31.3942C28.8477 31.2387 28.9463 31.076 29.0579 30.9126C29.1969 30.7088 29.356 30.5014 29.5461 30.3142C29.734 30.1256 29.9543 29.9643 30.184 29.8347L30.2783 30.5526C30.0162 30.4705 29.7786 30.3337 29.5821 30.163C29.3841 29.9931 29.2242 29.793 29.0968 29.5806C29.032 29.474 28.978 29.3631 28.9283 29.2501C28.8815 29.1378 28.839 29.0168 28.8088 28.9074C28.7447 28.6849 28.6979 28.4674 28.6569 28.2486C28.6072 27.98 28.5856 27.7158 28.6021 27.4587C28.6187 27.2024 28.6713 26.9518 28.7785 26.7301C28.803 26.6818 28.8354 26.6466 28.8714 26.6264L28.87 26.6379C28.8772 26.6466 28.8772 26.6674 28.8664 26.6862C28.8556 26.7056 28.8369 26.72 28.8232 26.7294C28.7944 26.7481 28.7793 26.7589 28.7771 26.7769C28.7771 26.7927 28.7843 26.8208 28.8448 26.8323C28.8743 26.8374 28.924 26.8323 28.9737 26.7999C29.0233 26.769 29.0586 26.715 29.0723 26.6754L29.0766 26.635C29.1198 26.6624 29.1522 26.707 29.1695 26.7726C29.2516 27.0757 29.338 27.3932 29.4237 27.7093C29.4942 27.9706 29.5338 28.2471 29.6058 28.502C29.6109 28.5013 29.6159 28.5006 29.6217 28.4998H29.6231Z" fill="#FCEADC"/>
</svg>
