<svg width="15" height="15" viewBox="0 0 15 15" fill="none" xmlns="http://www.w3.org/2000/svg">
<path d="M7.5 2.25L6.39167 5.63333C6.33491 5.80904 6.23727 5.96877 6.10675 6.09939C5.97624 6.23001 5.81658 6.32778 5.64092 6.38467L2.25 7.5L5.63333 8.60833C5.80904 8.66509 5.96877 8.76273 6.09939 8.89325C6.23001 9.02376 6.32778 9.18342 6.38467 9.35908L7.5 12.75L8.60833 9.36667C8.66509 9.19096 8.76273 9.03123 8.89325 8.90061C9.02376 8.76999 9.18342 8.67222 9.35908 8.61533L12.75 7.5L9.36667 6.39167C9.19096 6.33491 9.03123 6.23727 8.90061 6.10675C8.76999 5.97624 8.67222 5.81658 8.61533 5.64092L7.5 2.25Z" fill="#FCEADC" stroke="#FCEADC" stroke-width="2" stroke-linecap="round" stroke-linejoin="round"/>
</svg>
