<svg width="40" height="40" viewBox="0 0 40 40" fill="none" xmlns="http://www.w3.org/2000/svg">
<path d="M6.78927 13.3782C7.68946 13.8305 8.58946 14.3777 9.34458 15.1347C9.7166 15.5139 10.0435 15.9349 10.3188 16.3892C10.5865 16.8363 10.814 17.3063 10.9985 17.7936C11.3809 18.8181 11.5884 19.8779 11.7494 20.9165C11.7916 21.1741 11.8297 21.4317 11.8655 21.6883L11.9686 22.457L11.0294 22.5739C10.8788 21.3649 10.7608 20.1226 10.8642 18.8624C10.9626 17.6077 11.2923 16.3291 11.9613 15.2093C12.1292 14.9278 12.3181 14.6593 12.5265 14.4062C12.7355 14.1485 12.9676 13.9105 13.2201 13.6952C13.2816 13.6386 13.3484 13.5895 13.4138 13.5382C13.4801 13.4884 13.5439 13.4342 13.6126 13.3881C13.7495 13.2953 13.8854 13.1995 14.0288 13.1188C14.31 12.9514 14.6032 12.8049 14.9059 12.6805C15.2031 12.5576 15.507 12.4512 15.816 12.362C16.122 12.2765 16.4293 12.1975 16.7358 12.1356C17.3493 12.0053 17.9589 11.9175 18.56 11.8311L18.6193 12.9703L18.0836 12.9588C17.5016 12.9479 16.9143 12.9167 16.3224 12.8689C15.7166 12.8253 15.1149 12.7364 14.5224 12.6028C13.8978 12.4632 13.2992 12.2254 12.7491 11.8983C12.4649 11.7228 12.2022 11.5147 11.9662 11.2782C11.7312 11.0405 11.5266 10.7745 11.3572 10.4863C11.0226 9.92327 10.8173 9.3342 10.6419 8.76756C10.4647 8.19742 10.3172 7.6185 10.1999 7.03311C10.0796 6.44873 9.99374 5.85779 9.94266 5.26335C9.91805 4.96626 9.89888 4.66882 9.88961 4.37107L9.88278 4.1478C9.88102 4.0734 9.8829 3.99884 9.87665 3.92455C9.86809 3.77584 9.86625 3.6269 9.86079 3.47796L10.8707 3.52577C10.7858 4.61245 10.695 5.71771 10.4856 6.82836C10.457 6.96694 10.4309 7.10612 10.4 7.24436L10.2965 7.65847L10.1781 8.0709L10.0436 8.48064C9.85286 9.03099 9.60942 9.56163 9.31665 10.0652C8.75051 11.017 7.97403 11.8266 7.04669 12.432C6.68817 12.6731 6.29594 12.8597 5.88274 12.9859C5.73186 13.0291 5.57777 13.0602 5.42194 13.0789C5.3525 13.0865 5.28706 13.0914 5.22562 13.0937L5.18023 13.0951L5.14351 13.0904C5.11773 13.0869 5.09286 13.0835 5.0689 13.0803C4.77179 13.0369 4.60683 12.9851 4.83574 12.7601C4.86885 12.7289 4.90387 12.6997 4.94058 12.6729C4.95978 12.6579 4.98691 12.641 5.00422 12.6269C5.0203 12.6134 5.0371 12.5994 5.05462 12.5847C5.12462 12.5267 5.20919 12.47 5.30255 12.4028C5.39513 12.3341 5.50274 12.2687 5.61575 12.1879C5.6731 12.1497 5.733 12.1097 5.79548 12.068C5.85677 12.0246 5.92092 11.9805 5.98793 11.9358C6.33472 11.6979 6.66556 11.4376 6.97833 11.1566C7.29778 10.8741 7.59496 10.5673 7.86725 10.2391C8.23837 9.7865 8.55032 9.28843 8.79556 8.75695C9.04346 8.21416 9.24069 7.64963 9.38473 7.07055C9.69395 5.90346 9.83376 4.67587 9.96497 3.43855L9.96505 3.43785C9.97596 3.33534 10.0256 3.24088 10.1039 3.17382C10.1822 3.10675 10.2832 3.07216 10.3862 3.07713C10.4891 3.08209 10.5863 3.12624 10.6578 3.20053C10.7293 3.27481 10.7696 3.37361 10.7706 3.4767C10.7725 3.67743 10.7658 3.87854 10.7799 4.0791C10.7926 4.27959 10.8077 4.47983 10.828 4.67955C10.8668 5.07915 10.9245 5.47635 10.9903 5.87147C11.1205 6.66121 11.3114 7.43975 11.5612 8.20019C11.721 8.72021 11.9285 9.22434 12.1812 9.70613C12.3 9.92388 12.4401 10.1293 12.5994 10.3195C12.7549 10.4982 12.9271 10.6616 13.1137 10.8074C13.2888 10.9385 13.4748 11.0544 13.6695 11.1541C13.8732 11.2544 14.0835 11.3407 14.2989 11.4126C14.7497 11.5565 15.2129 11.6579 15.6826 11.7154C16.6445 11.8406 17.6442 11.8589 18.6497 11.896L18.6556 11.8962C18.7816 11.9009 18.9012 11.9527 18.9907 12.0414C19.0803 12.1301 19.1332 12.2493 19.139 12.3752C19.1448 12.5011 19.1031 12.6246 19.0221 12.7212C18.9411 12.8178 18.8268 12.8804 18.7018 12.8966C17.9384 12.9957 17.1872 13.0994 16.4653 13.2676C15.7464 13.4394 15.0503 13.6646 14.4355 14.0181C14.1733 14.1679 13.9257 14.3419 13.6959 14.5379C13.4676 14.7383 13.2585 14.9596 13.0712 15.1988C12.6973 15.6935 12.4034 16.2438 12.2001 16.8296C11.9921 17.4241 11.8579 18.0418 11.8006 18.669C11.741 19.3065 11.7277 19.9474 11.761 20.5869C11.7876 21.2093 11.851 21.8355 11.9244 22.4639L11.9249 22.468C11.938 22.5807 11.9059 22.694 11.8357 22.7831C11.7654 22.8722 11.6627 22.9298 11.55 22.9433C11.4374 22.9567 11.324 22.925 11.2347 22.855C11.1454 22.785 11.0875 22.6824 11.0737 22.5698C10.9504 21.5605 10.8202 20.5599 10.5869 19.5953C10.4773 19.1152 10.3372 18.6426 10.1676 18.1803C9.99818 17.7262 9.78646 17.2891 9.53518 16.8747C9.46924 16.7745 9.40798 16.6706 9.33861 16.573L9.12421 16.2849C8.97342 16.0995 8.81306 15.9222 8.64378 15.7535C8.29344 15.4178 7.90949 15.1189 7.49801 14.8617C7.29081 14.7301 7.07721 14.6061 6.85903 14.4879C6.74996 14.4288 6.63983 14.3711 6.52863 14.3147L6.36117 14.2309L6.27746 14.1899L6.19793 14.1542C6.09418 14.1043 5.98033 14.064 5.86972 14.0203C5.75464 13.9828 5.64214 13.9402 5.52402 13.9078C5.29148 13.8355 5.05136 13.7806 4.8114 13.7286C4.34598 13.6316 3.87377 13.5706 3.39898 13.5463C2.93878 13.5236 2.48468 13.5507 2.10726 13.6814L1.99878 13.2498L1.99843 13.2213H1.99886H2.00152H2.00507H2.01218L2.0264 13.2214C2.03562 13.2216 2.04507 13.2218 2.05835 13.2211L2.13179 13.2187L2.28117 13.2126C2.38136 13.2081 2.48098 13.2036 2.58003 13.1992C2.77891 13.1913 2.97535 13.1835 3.16937 13.1757C3.55804 13.1617 3.9375 13.1533 4.30824 13.1455C4.43438 13.1407 4.5607 13.1456 4.68609 13.1602C4.73472 13.1641 4.76378 13.1788 4.80863 13.1786C4.83783 13.1778 4.86658 13.1859 4.89103 13.2019L4.96463 13.116C4.95423 13.1552 4.93983 13.1725 4.9467 13.176C4.95138 13.1795 4.97694 13.1684 5.0003 13.1309C5.00312 13.1264 5.00491 13.1213 5.00555 13.116C5.00618 13.1108 5.00564 13.1054 5.00396 13.1004C5.00228 13.0953 4.9995 13.0907 4.99583 13.0868C4.99216 13.083 4.98768 13.08 4.98272 13.0781C4.97776 13.0762 4.97243 13.0754 4.96713 13.0758C4.96182 13.0761 4.95667 13.0777 4.95203 13.0803C4.94739 13.0829 4.94339 13.0865 4.94031 13.0908C4.93723 13.0952 4.93515 13.1001 4.93421 13.1054L4.91128 13.2349C4.90702 13.2588 4.87467 13.2954 4.81463 13.3361C4.77295 13.3701 4.72756 13.3992 4.67932 13.423C4.53065 13.4957 4.37384 13.5504 4.21222 13.586C3.8621 13.6665 3.50948 13.7377 3.15162 13.8054C2.9728 13.8391 2.79274 13.8716 2.61143 13.9028L2.33703 13.9482L2.19602 13.9698L2.12262 13.9802C2.09504 13.9839 2.05382 13.9876 2.01993 13.9905C1.89853 14.0009 1.7773 13.9686 1.67724 13.899C1.57718 13.8295 1.5046 13.7272 1.47207 13.6097C1.43954 13.4923 1.44912 13.3672 1.49913 13.2561C1.54915 13.145 1.63646 13.0549 1.74594 13.0014L1.78094 12.9845C2.06292 12.8533 2.36245 12.7637 2.67018 12.7184C2.81271 12.7011 2.9581 12.6789 3.09787 12.6738C3.16827 12.6699 3.23939 12.6642 3.30931 12.6623L3.51802 12.6607C4.07185 12.6661 4.62352 12.7306 5.16369 12.853C5.43662 12.9119 5.70644 12.9844 5.97213 13.0703L6.17365 13.1375L6.37605 13.2145C6.443 13.2385 6.51191 13.2709 6.57995 13.3005L6.6821 13.3458L6.77312 13.3896C6.77837 13.3857 6.78329 13.382 6.78927 13.3782Z" fill="#FCEADC"/>
<path d="M30.7185 15.7131C31.1878 16.2759 31.5663 16.9085 31.8402 17.5881C31.8738 17.6732 31.91 17.7571 31.9409 17.8432L32.0233 18.1053C32.0494 18.193 32.0802 18.2792 32.1021 18.3681L32.1625 18.6364C32.1809 18.7262 32.2059 18.8144 32.2184 18.9053L32.2557 19.178L32.274 19.3143C32.2802 19.3593 32.2863 19.4047 32.2895 19.4547C32.2969 19.5527 32.3006 19.654 32.2981 19.7594C32.2956 19.949 32.2648 20.137 32.2067 20.3174C32.1706 20.4226 32.1223 20.5231 32.0628 20.617C31.9966 20.717 31.9163 20.8071 31.8244 20.8843L31.8179 20.8898C31.7419 20.9536 31.6483 20.993 31.5495 21.0027C31.4506 21.0124 31.3512 20.9919 31.2642 20.9441C31.1772 20.8962 31.1067 20.8232 31.062 20.7346C31.0172 20.6459 31.0003 20.5458 31.0135 20.4474C31.0751 19.9915 31.1625 19.5394 31.2754 19.0934C31.459 18.3478 31.7435 17.6307 32.121 16.9619C32.5078 16.2782 33.0133 15.6689 33.6138 15.1625C34.2287 14.6545 34.9388 14.2744 35.7026 14.0446C36.4871 13.8113 37.3166 13.7724 38.1196 13.931C38.2375 13.9553 38.345 14.0157 38.4271 14.1038C38.5092 14.1919 38.562 14.3033 38.5781 14.4226C38.5941 14.542 38.5727 14.6633 38.5168 14.77C38.4609 14.8767 38.3733 14.9633 38.266 15.018L38.2553 15.0233C37.994 15.1525 37.714 15.2397 37.4255 15.2817C37.1603 15.3189 36.8921 15.3296 36.6248 15.3136C36.3686 15.3009 36.1245 15.2705 35.8899 15.2369C35.6559 15.2025 35.4326 15.169 35.1903 15.1247C34.8417 15.0661 34.5006 14.9696 34.1729 14.837C33.9936 14.7617 33.8221 14.6689 33.6609 14.56C33.4964 14.4477 33.3445 14.318 33.2079 14.1729C32.9543 13.895 32.7471 13.5781 32.5942 13.2344C32.4526 12.9168 32.3415 12.5865 32.2623 12.248C31.9426 10.936 31.9696 9.56347 32.3406 8.2651L32.3412 8.2632C32.3737 8.15004 32.4385 8.04885 32.5278 7.97209C32.617 7.89533 32.7268 7.84635 32.8436 7.8312C32.9603 7.81604 33.0789 7.83536 33.1848 7.88678C33.2907 7.9382 33.3793 8.01947 33.4396 8.12058C33.6286 8.44901 33.731 8.82016 33.7369 9.19906C33.7431 9.53121 33.7019 9.86256 33.6148 10.1831C33.5763 10.3378 33.5264 10.4808 33.4788 10.6254C33.4257 10.768 33.3739 10.9113 33.3108 11.0495C33.1905 11.3282 33.0494 11.5975 32.8886 11.855C32.2499 12.895 31.3239 13.7281 30.2224 14.2538C29.5216 14.5823 28.7607 14.7628 27.987 14.784C27.6835 14.7945 27.3804 14.7529 27.0909 14.6609C27.0322 14.6412 26.9773 14.621 26.9261 14.5996C26.8751 14.5761 26.8276 14.5521 26.7839 14.5277C26.7038 14.4848 26.6293 14.4323 26.562 14.3713C26.3851 14.2118 26.4187 14.0835 26.5944 13.9996C26.7708 13.9175 27.0896 13.8742 27.5226 13.8307L27.73 13.8083L27.9399 13.7803C28.0804 13.7588 28.2228 13.741 28.3645 13.7144C28.6475 13.6644 28.9273 13.5975 29.2023 13.5141C29.7331 13.349 30.2314 13.0936 30.6753 12.7591C31.5723 12.0848 32.2238 11.1353 32.5302 10.0558C32.6034 9.80984 32.6405 9.55457 32.6405 9.29795C32.6437 9.08616 32.5869 8.87779 32.4765 8.69702L33.42 8.57294C33.3239 8.95487 33.2639 9.34497 33.2406 9.73811C33.1957 10.464 33.2946 11.2104 33.4196 11.8962C33.5062 12.385 33.6579 12.8476 33.9043 13.2033C34.0204 13.3744 34.1675 13.5222 34.3379 13.6391C34.5238 13.7573 34.7264 13.847 34.9388 13.9055C35.181 13.9724 35.4271 14.0247 35.6756 14.0621C35.9404 14.1049 36.2039 14.1478 36.452 14.1731C36.9509 14.2268 37.4105 14.2065 37.7618 14.0343L37.8832 15.0109L37.709 14.9778L37.622 14.9606L37.5337 14.9502L37.357 14.9288L37.1785 14.9199C36.7727 14.9045 36.367 14.952 35.9758 15.0608C35.5775 15.1726 35.1957 15.3362 34.84 15.5474C34.4821 15.7591 34.1517 16.0142 33.8564 16.3069C33.5582 16.6041 33.2934 16.9329 33.0666 17.2875C32.4438 18.2497 32.0765 19.389 31.924 20.5534L31.235 20.1822C31.2761 20.1476 31.3072 20.1026 31.325 20.0519C31.3537 19.973 31.3701 19.8901 31.3735 19.8062C31.379 19.7019 31.3762 19.5974 31.3653 19.4936L31.3157 19.1462C31.2988 19.0302 31.2753 18.9153 31.2454 18.8019L31.206 18.6302C31.194 18.5726 31.1715 18.5178 31.1548 18.4614C31.1175 18.3498 31.0857 18.2361 31.0444 18.1257L30.9091 17.7981C30.7131 17.3653 30.4694 16.9557 30.1825 16.5769C29.8888 16.2007 29.5564 15.8563 29.1907 15.5495C28.7289 15.172 28.2263 14.8473 27.6923 14.5817C27.6602 14.5649 27.6286 14.5468 27.5963 14.5308L27.4978 14.4875L27.3021 14.3989C27.1735 14.3336 27.0397 14.2903 26.9085 14.2375L26.7118 14.159C26.6475 14.1358 26.5837 14.115 26.5195 14.0987C26.3927 14.0593 26.257 14.0587 26.1299 14.0971C26.0988 14.109 26.0705 14.1236 26.0482 14.1337C26.0477 14.1339 26.0473 14.1342 26.0469 14.1346C26.0466 14.1349 26.0463 14.1354 26.0461 14.1358L26.0436 14.143C26.0352 14.1692 26.037 14.1976 26.0486 14.2225C26.0591 14.2453 26.0742 14.2658 26.0929 14.2826C26.1268 14.3128 26.1691 14.3319 26.2141 14.3372C26.2354 14.34 26.2571 14.3383 26.2777 14.3322C26.2961 14.3287 26.3142 14.3238 26.3319 14.3176C26.3618 14.3063 26.3835 14.2992 26.3959 14.3072C26.4078 14.3146 26.4114 14.3381 26.3938 14.3781C26.3809 14.4026 26.3637 14.4245 26.3431 14.443C26.3183 14.4726 26.2861 14.495 26.2497 14.508C26.1625 14.5433 26.0657 14.5464 25.9764 14.5168C25.9103 14.495 25.8511 14.4564 25.8044 14.4048C25.7709 14.3674 25.7444 14.3243 25.7263 14.2774C25.7055 14.2218 25.6961 14.1627 25.6986 14.1034C25.7003 14.0585 25.715 14.015 25.7408 13.9781L25.8055 13.8853C25.8394 13.8366 25.8792 13.7921 25.9239 13.753C25.9488 13.7312 25.9753 13.7112 26.0031 13.6933C26.0328 13.6766 26.0635 13.662 26.0952 13.6495C26.2448 13.5927 26.404 13.5652 26.564 13.5684C26.689 13.569 26.8138 13.5799 26.937 13.6012L27.2758 13.6551L27.3611 13.6697L27.4446 13.6909L27.6122 13.7341C28.0641 13.8515 28.5005 14.0221 28.9123 14.2421C29.5925 14.6229 30.1984 15.1234 30.7008 15.7194C30.7065 15.7173 30.7118 15.7155 30.7185 15.7131Z" fill="#FCEADC"/>
<path d="M20.1699 27.8041L20.5268 28.0039L20.8702 28.2266L20.9556 28.2828L21.0376 28.3442L21.2013 28.4673C21.2555 28.5088 21.3108 28.5488 21.364 28.5915L21.519 28.7258C21.7264 28.9039 21.9237 29.0936 22.1098 29.2938L22.3775 29.6044C22.4651 29.709 22.5424 29.8215 22.6248 29.9299C22.9411 30.371 23.2092 30.8448 23.4247 31.343C23.6331 31.8406 23.7911 32.3578 23.8962 32.887C23.9201 33.0276 23.9493 33.1674 23.9675 33.309L24.0146 33.7347L24.0354 34.1627C24.0428 34.3053 24.0334 34.4485 24.033 34.5912C24.0144 35.1633 23.9329 35.7316 23.79 36.2858L23.6782 36.6758C23.6461 36.7878 23.5746 36.8845 23.4768 36.948C23.379 37.0115 23.2616 37.0375 23.1462 37.0213C23.0308 37.0051 22.9251 36.9478 22.8486 36.8598C22.7721 36.7719 22.7299 36.6592 22.7299 36.5427L22.73 36.5201C22.7311 35.2616 22.7284 33.9639 22.9703 32.6603C23.0892 32.0006 23.2837 31.3567 23.5499 30.7414C23.8219 30.1091 24.1948 29.5251 24.654 29.0124C25.125 28.5045 25.6783 28.0798 26.2907 27.7562C26.8851 27.4459 27.5103 27.1988 28.1562 27.0189C28.4737 26.9283 28.792 26.8508 29.1115 26.7823C29.4317 26.7145 29.7598 26.6549 30.0986 26.6179C30.445 26.5769 30.7942 26.5666 31.1424 26.5869C31.5076 26.6085 31.8686 26.6768 32.2165 26.7901C32.3311 26.8275 32.4314 26.8993 32.5037 26.9958C32.576 27.0923 32.6167 27.2088 32.6203 27.3293C32.6239 27.4498 32.5903 27.5685 32.5239 27.6692C32.4576 27.7698 32.3618 27.8476 32.2496 27.8918L32.2371 27.8967C31.6893 28.1005 31.1102 28.2071 30.5257 28.2115C29.9056 28.2153 29.2863 28.166 28.6745 28.0643C28.068 27.9801 27.4675 27.8571 26.8767 27.6961C26.5714 27.6115 26.2716 27.5083 25.9788 27.3872C25.6773 27.2649 25.3864 27.1179 25.109 26.9478C24.8244 26.7742 24.5574 26.5734 24.3116 26.3482C24.067 26.1217 23.8456 25.8715 23.6507 25.6012C23.2801 25.0786 22.9792 24.51 22.7556 23.9096C22.3161 22.7563 22.0446 21.5458 21.9494 20.3152C21.9383 20.1618 21.9287 20.0082 21.9234 19.8544C21.92 19.7775 21.9175 19.7006 21.9166 19.6236C21.9154 19.546 21.9126 19.4742 21.9142 19.3798C21.9141 19.1725 21.9448 18.9664 22.0051 18.7681C22.0465 18.637 22.1082 18.5133 22.1881 18.4015C22.2835 18.2693 22.4069 18.1597 22.5494 18.0806L22.5555 18.0773C22.6252 18.0392 22.7018 18.0153 22.7808 18.0068C22.8598 17.9984 22.9397 18.0056 23.0159 18.028C23.0921 18.0504 23.1632 18.0877 23.225 18.1375C23.2868 18.1874 23.3383 18.249 23.3763 18.3188C23.4171 18.3943 23.4417 18.4776 23.4485 18.5633C23.6269 21.015 22.9941 23.4574 21.6475 25.514C21.334 25.9919 20.9623 26.4289 20.5411 26.8152C20.3254 27.0102 20.0943 27.1874 19.8502 27.3453C19.6049 27.5038 19.3455 27.6393 19.0753 27.7499C18.6466 27.9319 18.1825 28.0147 17.7173 27.9922C17.4192 27.9812 17.128 27.8986 16.8685 27.7514C16.5893 27.5737 16.6446 27.4509 16.8877 27.3937C17.0114 27.358 17.1841 27.3359 17.4011 27.2945C17.6633 27.2456 17.9221 27.1797 18.1757 27.0973C18.5651 26.9657 18.9333 26.778 19.2685 26.5402C19.6174 26.2904 19.9361 26.0009 20.2181 25.6776C20.6254 25.2049 20.975 24.6855 21.2597 24.1303C21.5547 23.5729 21.7943 22.9879 21.9751 22.3837C22.3392 21.1751 22.4696 19.9082 22.3591 18.6508L23.0785 19.037C23.0787 19.0374 23.0797 19.0389 23.0787 19.0372L23.076 19.0333C23.0764 19.0341 23.077 19.0349 23.0776 19.0356C23.079 19.0375 23.0804 19.0388 23.0797 19.0378V19.0393C23.0756 19.0452 23.0721 19.0515 23.0694 19.0581C23.0507 19.1024 23.0386 19.1491 23.0334 19.1969C23.0239 19.2718 23.0201 19.3473 23.0222 19.4228L23.0328 19.7088C23.0526 20.0976 23.0938 20.4848 23.1501 20.8694C23.2659 21.6373 23.4595 22.3915 23.728 23.1202C23.9134 23.6378 24.1553 24.1333 24.4493 24.5979C24.5896 24.8162 24.747 25.0232 24.9199 25.2169C25.0031 25.3101 25.0909 25.3991 25.1831 25.4835C25.2296 25.5247 25.273 25.5688 25.3207 25.6085L25.4638 25.7271C25.8927 26.0557 26.3734 26.3107 26.8862 26.4813C27.4285 26.6647 27.9854 26.8023 28.5507 26.8926C29.1173 26.9979 29.6905 27.0637 30.2661 27.0894C30.8008 27.1153 31.3355 27.0378 31.8408 26.8611L31.859 27.8398C31.3587 27.6696 30.7937 27.6418 30.2133 27.7002C29.923 27.7277 29.6283 27.7757 29.3305 27.833C29.0324 27.8912 28.7361 27.9567 28.445 28.0321C27.8212 28.1858 27.2194 28.4177 26.6537 28.7222C26.104 29.0172 25.6163 29.4155 25.2175 29.8952C24.8222 30.3879 24.51 30.9417 24.2931 31.5348C24.0695 32.1421 23.9133 32.7722 23.8275 33.4137C23.6833 34.424 23.6679 35.4676 23.6545 36.5253L22.8006 36.3851C23.3694 34.7084 23.171 32.7758 22.3198 31.204C22.2641 31.1072 22.2147 31.0062 22.1542 30.9124L21.9721 30.631C21.9102 30.538 21.8393 30.4516 21.7734 30.3614C21.7394 30.3173 21.7078 30.2708 21.6717 30.2285L21.5618 30.1024C21.416 29.9333 21.2618 29.7717 21.0998 29.6181C20.9298 29.473 20.765 29.321 20.5808 29.1925C20.4925 29.1232 20.4008 29.0586 20.3059 28.9987C20.2109 28.9388 20.1182 28.8751 20.0215 28.818L19.7261 28.6547C19.6284 28.5988 19.5233 28.557 19.4224 28.5072C19.0128 28.3167 18.5846 28.1692 18.1446 28.0672C17.0961 27.8211 16.0073 27.7999 14.9501 28.0052L14.939 27.5856C15.5721 27.7781 16.2367 27.8455 16.8956 27.784C17.2695 27.7488 17.4594 27.7387 17.4578 27.8192C17.4553 27.8547 17.4059 27.9163 17.2994 27.9865C17.2348 28.029 17.1672 28.0668 17.0971 28.0995C17.0562 28.1194 17.0115 28.1396 16.9627 28.1584C16.9383 28.1677 16.9133 28.1786 16.8868 28.187C16.8601 28.1948 16.8326 28.2024 16.8041 28.21C16.1433 28.3835 15.453 28.4134 14.7796 28.2976C14.6682 28.278 14.5665 28.2217 14.4907 28.1377C14.415 28.0537 14.3695 27.9467 14.3616 27.8338C14.3537 27.721 14.3837 27.6087 14.447 27.5149C14.5103 27.4211 14.6031 27.3512 14.7108 27.3163L14.7535 27.3026C15.4224 27.0893 16.1203 26.9811 16.8224 26.9819C17.399 26.9802 17.9733 27.0537 18.5308 27.2004C19.0922 27.3457 19.6361 27.5517 20.1529 27.8148C20.1584 27.811 20.1636 27.8076 20.1699 27.8041Z" fill="#FCEADC"/>
</svg>
