<svg width="44" height="44" viewBox="0 0 44 44" fill="none" xmlns="http://www.w3.org/2000/svg">
<g clip-path="url(#clip0_4989_671)">
<path d="M34.25 13.9191C33.3926 14.4481 32.5437 15.0716 31.8575 15.8916C31.5199 16.3018 31.231 16.7496 30.9963 17.2262C30.7685 17.6949 30.5829 18.183 30.4416 18.6846C30.1499 19.7385 30.0356 20.8123 29.9657 21.861C29.9461 22.1213 29.9307 22.3812 29.9174 22.64L29.8816 23.4147L30.8275 23.4493C30.8721 22.2318 30.8813 20.984 30.6685 19.7375C30.4612 18.4962 30.0212 17.2513 29.2572 16.194C29.0654 15.9281 28.8538 15.6772 28.6241 15.4432C28.3935 15.2046 28.1415 14.9878 27.8712 14.7953C27.805 14.7443 27.7342 14.7012 27.6646 14.6559C27.5942 14.6119 27.5259 14.5636 27.4535 14.5237C27.309 14.4431 27.1653 14.3595 27.0154 14.2916C26.7207 14.1494 26.4158 14.029 26.1034 13.9314C25.7966 13.8349 25.4847 13.7554 25.169 13.6934C24.8567 13.635 24.5437 13.583 24.233 13.5481C23.6105 13.4718 22.9956 13.4374 22.3892 13.4038L22.4294 14.5438L22.9621 14.4856C23.5409 14.424 24.1233 14.3418 24.7087 14.2425C25.3084 14.1464 25.9001 14.0053 26.4787 13.8206C27.0888 13.6271 27.6643 13.3381 28.1838 12.9642C28.4516 12.7646 28.6953 12.5344 28.9097 12.2783C29.1231 12.021 29.3037 11.7382 29.4474 11.4363C29.7317 10.8462 29.8848 10.2415 30.0102 9.66175C30.1369 9.07834 30.2335 8.48876 30.2993 7.89538C30.3682 7.30274 30.4022 6.70657 30.4013 6.10993C30.3999 5.81182 30.3931 5.51384 30.3764 5.21642L30.3637 4.99341C30.359 4.91914 30.3506 4.84503 30.3504 4.77048C30.346 4.62158 30.3348 4.47305 30.3273 4.3242L29.3254 4.45984C29.5047 5.53499 29.6915 6.62813 29.9969 7.7163C30.0374 7.85186 30.0756 7.98824 30.1183 8.12327L30.2576 8.52677L30.4114 8.92732L30.5812 9.32377C30.8191 9.85541 31.1079 10.3628 31.4435 10.8389C32.0904 11.7378 32.9345 12.4766 33.9111 12.9989C34.2892 13.2078 34.6962 13.3596 35.1189 13.4492C35.2729 13.4791 35.4291 13.4967 35.586 13.5018C35.6559 13.5033 35.7215 13.5025 35.7829 13.4994L35.8282 13.4968L35.8644 13.489C35.8898 13.4832 35.9142 13.4777 35.9378 13.4723C36.23 13.4032 36.3898 13.3373 36.1422 13.1331C36.1065 13.1048 36.0691 13.0789 36.0301 13.0553C36.0097 13.0421 35.9812 13.0276 35.9627 13.015C35.9456 13.003 35.9276 12.9905 35.9089 12.9774C35.8341 12.9257 35.7449 12.8766 35.646 12.8178C35.5478 12.7574 35.4349 12.7017 35.3153 12.631C35.2548 12.5979 35.1917 12.5633 35.1258 12.5272C35.0609 12.4893 34.9932 12.451 34.9225 12.4123C34.5563 12.2056 34.2041 11.9751 33.868 11.7224C33.5251 11.4688 33.2024 11.1891 32.9025 10.8859C32.4933 10.4673 32.1392 9.99834 31.8485 9.49026C31.5543 8.97114 31.3086 8.42595 31.1146 7.86163C30.7049 6.72593 30.4586 5.51519 30.2201 4.29402L30.2199 4.29333C30.2001 4.19216 30.1424 4.10239 30.0585 4.04241C29.9747 3.98242 29.8711 3.95676 29.7689 3.97068C29.6668 3.98461 29.5738 4.03705 29.5091 4.11728C29.4444 4.19752 29.4128 4.29946 29.4208 4.40224C29.4364 4.60237 29.4606 4.80213 29.464 5.00316C29.4688 5.20399 29.4713 5.40478 29.4684 5.60551C29.4646 6.00697 29.4418 6.40769 29.4107 6.80704C29.3498 7.60513 29.2275 8.39735 29.0449 9.17666C28.9311 9.70863 28.7682 10.2289 28.5585 10.7309C28.4591 10.9582 28.3374 11.1751 28.1953 11.3784C28.056 11.5699 27.8987 11.7477 27.7256 11.9093C27.5625 12.0551 27.3874 12.1868 27.2021 12.303C27.0078 12.4207 26.8059 12.5251 26.5976 12.6155C26.1611 12.7981 25.7084 12.9394 25.2456 13.0377C24.2983 13.2463 23.3039 13.3516 22.3055 13.4762L22.2996 13.4769C22.1745 13.4926 22.0599 13.5546 21.9784 13.6508C21.8969 13.747 21.8546 13.8703 21.8598 13.9962C21.865 14.1222 21.9173 14.2416 22.0064 14.3307C22.0955 14.4199 22.2149 14.4723 22.3408 14.4776C23.1099 14.5097 23.8673 14.5475 24.6011 14.6522C25.3322 14.7607 26.0454 14.9244 26.6886 15.2229C26.9629 15.3493 27.2247 15.5011 27.4707 15.6763C27.7156 15.8561 27.9432 16.0583 28.1507 16.2803C28.5662 16.7405 28.907 17.2631 29.1605 17.829C29.4195 18.403 29.607 19.0067 29.7188 19.6265C29.8338 20.2563 29.9028 20.8937 29.9255 21.5336C29.9531 22.156 29.9446 22.7853 29.9262 23.4177L29.9261 23.4219C29.9229 23.5353 29.9647 23.6454 30.0425 23.728C30.1202 23.8106 30.2276 23.8591 30.341 23.8627C30.4544 23.8663 30.5646 23.8247 30.6474 23.7472C30.7303 23.6697 30.779 23.5625 30.7829 23.4491C30.8178 22.4329 30.8603 21.4248 31.0087 20.4435C31.076 19.9557 31.1744 19.4727 31.3031 18.9974C31.4322 18.5302 31.605 18.0763 31.8192 17.6415C31.8762 17.536 31.9282 17.4271 31.9888 17.3239L32.1772 17.0182C32.3113 16.8204 32.4556 16.6297 32.6095 16.447C32.9293 16.082 33.2857 15.7508 33.6732 15.4587C33.8682 15.3096 34.0701 15.1674 34.2772 15.0306C34.3807 14.9622 34.4854 14.8951 34.5912 14.8293L34.7508 14.7312L34.8306 14.683L34.9067 14.6406C35.0057 14.5819 35.1156 14.5317 35.222 14.4785C35.3334 14.4312 35.4417 14.3789 35.5566 14.3364C35.7819 14.2441 36.0163 14.1685 36.2509 14.0958C36.706 13.9586 37.1711 13.8567 37.642 13.791C38.0985 13.7284 38.5532 13.7158 38.9406 13.813L39.011 13.3737L39.0089 13.3452L39.0085 13.3453L39.0058 13.3455L39.0023 13.3458L38.9952 13.3464L38.981 13.3478C38.9719 13.3487 38.9625 13.3498 38.9492 13.3503L38.8758 13.3543L38.7265 13.3612C38.6263 13.3654 38.5266 13.3697 38.4276 13.3739C38.2288 13.3833 38.0324 13.3927 37.8385 13.4019C37.45 13.4218 37.0713 13.4465 36.7013 13.471C36.5752 13.4772 36.4498 13.4932 36.3261 13.5186C36.278 13.5267 36.2504 13.5438 36.2057 13.5476C36.1765 13.5493 36.1486 13.5599 36.1256 13.578L36.0448 13.4988C36.0586 13.537 36.0744 13.5529 36.0679 13.557C36.0635 13.5609 36.0371 13.5521 36.0106 13.5168C36.0074 13.5125 36.0051 13.5076 36.0041 13.5024C36.003 13.4972 36.003 13.4919 36.0043 13.4867C36.0055 13.4815 36.0079 13.4767 36.0112 13.4725C36.0145 13.4684 36.0187 13.465 36.0235 13.4626C36.0283 13.4603 36.0335 13.459 36.0388 13.459C36.0441 13.4589 36.0494 13.46 36.0543 13.4622C36.0591 13.4644 36.0634 13.4676 36.0668 13.4717C36.0703 13.4757 36.0728 13.4805 36.0742 13.4856L36.1083 13.6126C36.1147 13.6361 36.1501 13.6697 36.2134 13.705C36.2579 13.7352 36.3057 13.7603 36.3558 13.7798C36.5102 13.8392 36.6712 13.8801 36.8353 13.9015C37.1911 13.9512 37.5486 13.9914 37.911 14.0276C38.0921 14.0456 38.2743 14.0623 38.4576 14.0775L38.7349 14.0989L38.8773 14.1081L38.9513 14.1121C38.9791 14.1133 39.0205 14.1134 39.0545 14.1133C39.1764 14.1132 39.2943 14.0704 39.3879 13.9924C39.4816 13.9144 39.5449 13.8061 39.5671 13.6863C39.5893 13.5665 39.5688 13.4427 39.5093 13.3364C39.4498 13.23 39.355 13.1479 39.2413 13.1041L39.2049 13.0904C38.9126 12.9842 38.6064 12.921 38.2959 12.9028C38.1524 12.898 38.0056 12.8885 37.8659 12.8956C37.7955 12.8979 37.7241 12.8983 37.6543 12.9026L37.4462 12.9191C36.895 12.9729 36.351 13.0852 35.8236 13.2542C35.5568 13.3366 35.2944 13.4324 35.0372 13.5411L34.8423 13.6256L34.6474 13.72C34.5827 13.7497 34.5169 13.788 34.4517 13.8234L34.3539 13.8774L34.2671 13.9291C34.2615 13.9256 34.2563 13.9223 34.25 13.9191Z" fill="#1D1918"/>
<path d="M10.6154 18.331C10.1969 18.9325 9.87502 19.5957 9.66139 20.2966C9.63539 20.3843 9.60666 20.4711 9.58338 20.5594L9.52414 20.8278C9.50572 20.9175 9.4826 21.006 9.46848 21.0965L9.43171 21.369C9.4212 21.4601 9.40398 21.55 9.3995 21.6418L9.3861 21.9167L9.37976 22.054C9.37742 22.0994 9.3753 22.1452 9.37652 22.1952C9.3777 22.2935 9.38279 22.3948 9.39451 22.4996C9.41355 22.6881 9.46063 22.8728 9.53421 23.0475C9.57933 23.1491 9.63619 23.245 9.70363 23.3333C9.77835 23.4273 9.86618 23.51 9.96442 23.5789L9.9714 23.5838C10.0527 23.6407 10.1494 23.6718 10.2487 23.6728C10.3479 23.6739 10.4452 23.6449 10.5277 23.5896C10.6102 23.5344 10.6741 23.4554 10.7109 23.3632C10.7478 23.271 10.7559 23.1698 10.7342 23.073C10.6331 22.6241 10.5066 22.1814 10.3553 21.747C10.1074 21.0201 9.76151 20.3305 9.32716 19.6973C8.88219 19.0499 8.32549 18.4869 7.68312 18.0348C7.02632 17.5823 6.28577 17.2656 5.50491 17.1032C4.70302 16.9392 3.87329 16.9727 3.08721 17.2007C2.97184 17.2352 2.87005 17.3047 2.7959 17.3996C2.72175 17.4945 2.67891 17.6101 2.6733 17.7304C2.66769 17.8507 2.69958 17.9697 2.76458 18.0711C2.82957 18.1725 2.92445 18.2512 3.03611 18.2963L3.04717 18.3007C3.31875 18.4066 3.60531 18.469 3.89632 18.4857C4.16375 18.4997 4.4319 18.487 4.6968 18.4477C4.95093 18.4128 5.19142 18.3612 5.4222 18.3073C5.6523 18.2526 5.87181 18.1998 6.10937 18.1346C6.45152 18.0458 6.78296 17.9199 7.0978 17.7592C7.26991 17.6686 7.43266 17.5613 7.58372 17.4387C7.73785 17.3125 7.87785 17.17 8.00126 17.0136C8.22969 16.7147 8.40849 16.3809 8.5308 16.0251C8.64419 15.6964 8.72613 15.3577 8.77552 15.0136C8.97962 13.6787 8.83309 12.3138 8.35033 11.0527L8.34962 11.0508C8.30741 10.9409 8.23397 10.8458 8.13836 10.7771C8.04275 10.7084 7.92914 10.6692 7.81151 10.6643C7.69389 10.6593 7.57739 10.6889 7.47637 10.7494C7.37535 10.8098 7.29422 10.8985 7.24297 11.0045C7.08327 11.3481 7.01368 11.7268 7.04075 12.1048C7.0636 12.4362 7.13344 12.7627 7.24817 13.0745C7.30002 13.2252 7.36222 13.3633 7.4222 13.5032C7.48755 13.6406 7.55163 13.7789 7.62652 13.9111C7.77068 14.1782 7.93474 14.4342 8.1173 14.6767C8.8443 15.6571 9.83934 16.4063 10.9825 16.834C11.7092 17.1002 12.483 17.2136 13.2555 17.1673C13.5588 17.1513 13.8572 17.0834 14.1375 16.9666C14.1943 16.9419 14.2472 16.9169 14.2963 16.8912C14.3452 16.8633 14.3903 16.8353 14.4318 16.8071C14.5078 16.7575 14.5775 16.6986 14.6392 16.632C14.8015 16.4577 14.7569 16.3328 14.5745 16.2646C14.3916 16.1982 14.0703 16.1827 13.6352 16.1772L13.4265 16.173L13.215 16.1633C13.0732 16.1542 12.9298 16.1488 12.7863 16.1347C12.5 16.1095 12.2154 16.0673 11.9342 16.0082C11.3911 15.89 10.8724 15.679 10.4011 15.3844C9.44868 14.7909 8.71687 13.9018 8.31753 12.8531C8.2232 12.6144 8.16396 12.3634 8.14166 12.1077C8.11996 11.897 8.15845 11.6845 8.25267 11.4948L7.30189 11.4534C7.43091 11.8255 7.52474 12.2089 7.58216 12.5985C7.69019 13.3177 7.65666 14.0699 7.59191 14.764C7.54824 15.2585 7.4375 15.7326 7.22299 16.1084C7.12228 16.2889 6.98865 16.449 6.82902 16.5803C6.65411 16.7142 6.46019 16.8213 6.25367 16.898C6.01819 16.9858 5.77764 17.0594 5.53332 17.1182C5.27326 17.184 5.01445 17.2497 4.76955 17.2966C4.27722 17.3936 3.81763 17.4133 3.45263 17.2724L3.4168 18.2559L3.58744 18.2078L3.6726 18.1831L3.75968 18.165L3.93386 18.1283L4.11087 18.1038C4.51375 18.0531 4.92205 18.065 5.32125 18.1393C5.72777 18.216 6.12247 18.3457 6.4952 18.5251C6.8702 18.7048 7.22155 18.9301 7.54125 19.196C7.86418 19.466 8.15666 19.7705 8.41351 20.104C9.11773 21.0083 9.58294 22.1112 9.83635 23.2579L10.4904 22.8281C10.4464 22.7972 10.4115 22.7551 10.3894 22.7061C10.3539 22.63 10.3304 22.5489 10.3196 22.4656C10.3051 22.3622 10.2988 22.2578 10.3006 22.1534L10.3197 21.8031C10.3265 21.686 10.3398 21.5695 10.3597 21.4539L10.384 21.2794C10.391 21.221 10.4086 21.1645 10.4203 21.1068C10.4477 20.9924 10.4695 20.8764 10.501 20.7627L10.6072 20.4246C10.7648 19.9764 10.9719 19.5471 11.2247 19.1448C11.4845 18.7444 11.7856 18.3723 12.1232 18.0349C12.5503 17.6185 13.0227 17.2513 13.5315 16.9401C13.562 16.9206 13.5919 16.8998 13.6227 16.8811L13.717 16.8293L13.9043 16.724C14.0267 16.6478 14.1563 16.5929 14.2824 16.5289L14.4714 16.4336C14.5335 16.4049 14.5952 16.3786 14.6578 16.3568C14.7806 16.3064 14.9158 16.294 15.0457 16.3212C15.0777 16.3303 15.1072 16.3424 15.1303 16.3505C15.1308 16.3507 15.1313 16.3509 15.1316 16.3513C15.132 16.3516 15.1323 16.352 15.1325 16.3525L15.1357 16.3594C15.1464 16.3848 15.1471 16.4132 15.1376 16.439C15.1291 16.4627 15.1159 16.4844 15.0987 16.5028C15.0677 16.5358 15.0272 16.5585 14.9828 16.5677C14.9618 16.5724 14.9401 16.5726 14.919 16.5683C14.9004 16.5664 14.8819 16.5631 14.8637 16.5585C14.833 16.5498 14.8107 16.5446 14.7991 16.5536C14.7878 16.5621 14.7863 16.5858 14.8074 16.6241C14.8223 16.6474 14.8414 16.6678 14.8635 16.6843C14.8907 16.7117 14.9248 16.7312 14.9622 16.7409C15.0521 16.7685 15.1489 16.7632 15.2353 16.7259C15.2991 16.6984 15.3548 16.6548 15.3968 16.5994C15.427 16.5592 15.4496 16.5139 15.4635 16.4656C15.4793 16.4085 15.4836 16.3487 15.4759 16.2899C15.4703 16.2453 15.4519 16.2032 15.423 16.1687L15.3504 16.082C15.3124 16.0363 15.2689 15.9955 15.221 15.9604C15.1942 15.9409 15.1661 15.9233 15.1368 15.9078C15.1058 15.8938 15.0739 15.8819 15.0413 15.8723C14.8873 15.8287 14.7263 15.8152 14.5672 15.8323C14.4427 15.8438 14.3193 15.8656 14.1984 15.8975L13.8656 15.9807L13.782 16.0028L13.7006 16.0311L13.5374 16.0887C13.0975 16.2451 12.6776 16.4531 12.2866 16.7082C11.6421 17.1468 11.0822 17.6982 10.6336 18.3357C10.6277 18.3341 10.6223 18.3327 10.6154 18.331Z" fill="#1D1918"/>
<path d="M22.1776 29.4565L21.8395 29.6866L21.5168 29.9384L21.4366 30.0018L21.3603 30.0702L21.2079 30.2071C21.1575 30.2531 21.1059 30.2978 21.0567 30.345L20.9139 30.4922C20.7228 30.6878 20.5429 30.8939 20.3749 31.1096L20.1353 31.4423C20.0571 31.5542 19.99 31.673 19.9173 31.7881C19.6407 32.2552 19.4149 32.7505 19.2436 33.2656C19.0794 33.7794 18.9671 34.3085 18.9085 34.8448C18.8969 34.987 18.88 35.1288 18.8743 35.2714L18.8644 35.6996L18.881 36.1278C18.8861 36.2705 18.9079 36.4123 18.9208 36.5545C18.9892 37.1228 19.1199 37.6818 19.3105 38.2214L19.4558 38.6002C19.4976 38.709 19.5773 38.7991 19.6802 38.8538C19.7831 38.9085 19.9024 38.9242 20.0159 38.898C20.1295 38.8718 20.2298 38.8055 20.2984 38.7112C20.3669 38.6169 20.3991 38.5011 20.389 38.3849L20.3869 38.3625C20.2761 37.1088 20.1657 35.8158 19.8111 34.5383C19.6352 33.8914 19.3853 33.2669 19.0664 32.6772C18.7404 32.071 18.318 31.5218 17.8159 31.051C17.3024 30.5861 16.7141 30.2113 16.0759 29.9423C15.4568 29.685 14.8124 29.4933 14.1533 29.3704C13.8291 29.3077 13.5052 29.2583 13.181 29.2178C12.856 29.1783 12.524 29.1475 12.1833 29.1401C11.8347 29.1295 11.4858 29.1497 11.1407 29.2003C10.7788 29.2536 10.4251 29.353 10.0885 29.4963C9.97755 29.5435 9.88389 29.6238 9.82029 29.7262C9.7567 29.8287 9.72627 29.9482 9.73316 30.0686C9.74005 30.189 9.78392 30.3043 9.85879 30.3988C9.93365 30.4933 10.0359 30.5624 10.1515 30.5967L10.1644 30.6004C10.7278 30.7558 11.3141 30.8114 11.8967 30.7649C12.5148 30.7146 13.1274 30.6116 13.728 30.4569C14.3249 30.3202 14.9124 30.1453 15.4869 29.9334C15.7836 29.8225 16.0734 29.6936 16.3544 29.5475C16.6441 29.3993 16.9212 29.2276 17.1827 29.034C17.451 28.8362 17.6995 28.6128 17.9248 28.3671C18.1487 28.1202 18.3474 27.8516 18.518 27.5653C18.8417 27.0124 19.0919 26.4198 19.2623 25.8022C19.5996 24.615 19.7646 23.3854 19.7521 22.1512C19.7499 21.9974 19.746 21.8435 19.7379 21.6898C19.7346 21.613 19.7303 21.5361 19.7246 21.4594C19.719 21.382 19.7156 21.3102 19.7057 21.2163C19.6877 21.0098 19.6392 20.8071 19.5618 20.6148C19.5092 20.4878 19.4369 20.37 19.3476 20.2656C19.241 20.1422 19.1085 20.0438 18.9596 19.9773L18.9533 19.9746C18.8805 19.9428 18.8022 19.9256 18.7227 19.9241C18.6433 19.9225 18.5643 19.9367 18.4904 19.9657C18.4164 19.9946 18.3489 20.0379 18.2916 20.093C18.2344 20.1481 18.1885 20.2139 18.1567 20.2867C18.1226 20.3656 18.1054 20.4507 18.1061 20.5366C18.142 22.9945 18.9853 25.3725 20.506 27.3039C20.86 27.7526 21.2683 28.1556 21.7216 28.5037C21.9535 28.6792 22.1991 28.8356 22.4561 28.9715C22.7142 29.1081 22.9844 29.2205 23.2633 29.3071C23.7062 29.451 24.1758 29.4931 24.6372 29.4302C24.9333 29.3932 25.2161 29.2855 25.4619 29.1163C25.7245 28.9149 25.6587 28.7974 25.4115 28.7616C25.2852 28.7368 25.1112 28.7299 24.8914 28.7075C24.626 28.6817 24.3624 28.6386 24.1025 28.5785C23.7032 28.4814 23.3201 28.3265 22.9654 28.1189C22.5961 27.9004 22.2534 27.6398 21.9442 27.3423C21.4973 26.9069 21.1037 26.4199 20.7718 25.8916C20.4293 25.3621 20.1396 24.8002 19.9069 24.214C19.4388 23.0418 19.1985 21.7911 19.1989 20.5288L18.516 20.9763C18.5158 20.9767 18.5149 20.9783 18.5158 20.9765L18.5182 20.9724C18.5178 20.9732 18.5173 20.974 18.5168 20.9748C18.5155 20.9768 18.5142 20.9783 18.5149 20.9772L18.515 20.9787C18.5196 20.9842 18.5236 20.9901 18.5269 20.9965C18.5494 21.0389 18.5655 21.0845 18.5748 21.1316C18.5908 21.2054 18.6011 21.2803 18.6057 21.3557L18.62 21.6415C18.6342 22.0305 18.6269 22.4199 18.6043 22.8079C18.5559 23.583 18.4288 24.3512 18.2248 25.1005C18.0852 25.6323 17.8875 26.147 17.6351 26.6354C17.5143 26.8652 17.3755 27.0851 17.2202 27.2931C17.1454 27.3932 17.0657 27.4895 16.9812 27.5816C16.9385 27.6267 16.8991 27.6745 16.855 27.7182L16.7228 27.8488C16.3241 28.2136 15.8675 28.5094 15.3716 28.7241C14.8473 28.9541 14.3046 29.1397 13.7492 29.2789C13.194 29.4332 12.6287 29.5487 12.0575 29.6245C11.5271 29.6969 10.9877 29.6662 10.4689 29.5342L10.5361 30.5108C11.0196 30.2977 11.5801 30.2207 12.1633 30.2284C12.4549 30.2304 12.7527 30.2526 13.0543 30.2837C13.3564 30.3157 13.6573 30.3552 13.9539 30.4049C14.5886 30.5036 15.2084 30.6821 15.7984 30.9362C16.3718 31.1822 16.8923 31.5364 17.3315 31.9796C17.7682 32.4359 18.1275 32.9604 18.3952 33.5324C18.6709 34.1179 18.8814 34.732 19.0228 35.3635C19.2546 36.3574 19.3608 37.3957 19.4663 38.4482L20.3048 38.2341C19.592 36.6134 19.6212 34.6709 20.3322 33.0308C20.3792 32.9295 20.4196 32.8247 20.4718 32.7259L20.6286 32.4297C20.6822 32.3316 20.7453 32.2395 20.803 32.1438C20.8331 32.0969 20.8605 32.0479 20.8928 32.0025L20.9913 31.8673C21.1218 31.6862 21.2613 31.5118 21.4094 31.3447C21.5661 31.1853 21.7169 31.0195 21.8892 30.8754C21.9712 30.7987 22.0569 30.7263 22.1462 30.6584C22.2356 30.5905 22.3224 30.5189 22.4138 30.4536L22.6938 30.2652C22.7863 30.2009 22.8873 30.1502 22.9836 30.0917C23.3749 29.8663 23.7887 29.6821 24.2181 29.5421C25.2412 29.2055 26.324 29.0895 27.3951 29.2019L27.3695 28.7829C26.7556 29.0299 26.0995 29.1549 25.4377 29.1511C25.0621 29.1486 24.8721 29.1551 24.8807 29.2352C24.8862 29.2703 24.9408 29.3274 25.053 29.388C25.1211 29.4247 25.1917 29.4565 25.2644 29.4829C25.3069 29.4992 25.3532 29.5155 25.4034 29.5299C25.4285 29.5371 25.4545 29.5457 25.4816 29.5518C25.5088 29.5572 25.5369 29.5624 25.5659 29.5675C26.2393 29.6828 26.9297 29.6524 27.5903 29.4783C27.6997 29.4491 27.7961 29.3842 27.8642 29.2939C27.9324 29.2035 27.9683 29.093 27.9664 28.9799C27.9644 28.8667 27.9247 28.7575 27.8535 28.6696C27.7823 28.5817 27.6837 28.5201 27.5734 28.4947L27.5297 28.4848C26.8447 28.3306 26.14 28.2837 25.4406 28.3457C24.8662 28.3943 24.3004 28.5175 23.7578 28.7122C23.2112 28.9059 22.6873 29.1585 22.1954 29.4656C22.1897 29.4623 22.1842 29.4594 22.1776 29.4565Z" fill="#1D1918"/>
</g>
<defs>
<clipPath id="clip0_4989_671">
<rect width="40" height="40" fill="white" transform="matrix(-0.996195 0.0871557 0.0871557 0.996195 39.8477 0.00012207)"/>
</clipPath>
</defs>
</svg>
