<svg width="17" height="17" viewBox="0 0 17 17" fill="none" xmlns="http://www.w3.org/2000/svg">
<path d="M5.1665 6.94475C5.1665 6.47319 5.35383 6.02095 5.68727 5.68751C6.02071 5.35407 6.47295 5.16675 6.9445 5.16675H12.7218C12.9553 5.16675 13.1865 5.21274 13.4022 5.30209C13.618 5.39144 13.814 5.52241 13.9791 5.68751C14.1442 5.85261 14.2751 6.04862 14.3645 6.26434C14.4538 6.48005 14.4998 6.71126 14.4998 6.94475V12.7221C14.4998 12.9556 14.4538 13.1868 14.3645 13.4025C14.2751 13.6182 14.1442 13.8142 13.9791 13.9793C13.814 14.1444 13.618 14.2754 13.4022 14.3647C13.1865 14.4541 12.9553 14.5001 12.7218 14.5001H6.9445C6.71101 14.5001 6.47981 14.4541 6.26409 14.3647C6.04838 14.2754 5.85237 14.1444 5.68727 13.9793C5.52217 13.8142 5.3912 13.6182 5.30185 13.4025C5.21249 13.1868 5.1665 12.9556 5.1665 12.7221V6.94475Z" stroke="#554BA1" stroke-width="2" stroke-linecap="round" stroke-linejoin="round"/>
<path d="M3.17467 11.6581C2.97 11.5418 2.79977 11.3734 2.68127 11.17C2.56277 10.9667 2.50023 10.7355 2.5 10.5001V3.83346C2.5 3.10012 3.1 2.50012 3.83333 2.50012H10.5C11 2.50012 11.272 2.75679 11.5 3.16679" stroke="#554BA1" stroke-width="2" stroke-linecap="round" stroke-linejoin="round"/>
</svg>
